%
M48
M72
T01C0.01378
T02C0.03150
T03C0.03200
T04C0.03500
T05C0.03543
T06C0.04000
T07C0.04724
T08C0.05500
%
T01
X183854Y206295
X219760Y251256
X180390Y324091
X170547Y324091
T02
X160705Y379209
X141020Y379209
X121335Y379209
X101650Y379209
X420547Y379209
X440232Y379209
X459917Y379209
X479602Y379209
T03
X194169Y166295
X194169Y206295
X221413Y225665
X194169Y252909
X165665Y224484
X125665Y224484
X194169Y292909
X186610Y355587
X146610Y355587
X139366Y355587
X99366Y355587
X99996Y312280
X59996Y312280
X261413Y225665
X288343Y217791
X328343Y217791
X436295Y229287
X436295Y269287
X465508Y298500
X434327Y319839
X403146Y298500
X363146Y298500
X351650Y345429
X351650Y385429
X406453Y359524
X434327Y359839
X446453Y359524
X453697Y359524
X493697Y359524
X505508Y298500
T04
X387713Y227791
X387713Y217791
X387713Y207791
X357713Y177791
X347713Y177791
X337713Y177791
X159366Y302280
X159366Y312280
X159366Y322280
X129366Y272280
X119366Y272280
X109366Y272280
T05
X89366Y299780
X69366Y299780
X69366Y324780
X89366Y324780
X297713Y230291
X317713Y230291
X317713Y205291
X297713Y205291
T06
X254213Y216765
X254213Y234565
X228613Y234565
X228613Y216765
X206969Y193227
X206969Y175427
X181369Y175427
X181369Y193227
X158623Y215624
X158623Y233424
X133023Y233424
X133023Y215624
X181369Y264009
X206969Y264009
X206969Y281809
X181369Y281809
X254720Y279091
X254720Y289091
X254720Y299091
X254720Y309091
X254720Y319091
X254720Y329091
X254720Y339091
X264720Y339091
X254720Y349091
X254720Y359091
X254720Y369091
X254720Y379091
X304720Y339091
X314720Y339091
X314720Y329091
X314720Y319091
X314720Y309091
X314720Y299091
X314720Y289091
X314720Y279091
X314720Y269091
X304720Y269091
X294720Y269091
X284720Y269091
X274720Y269091
X264720Y269091
X254720Y269091
X314720Y349091
X314720Y359091
X314720Y369091
X314720Y379091
X338850Y378266
X364450Y378266
X364450Y360466
X338850Y360466
X370346Y307400
X370346Y289600
X395946Y289600
X395946Y307400
X421527Y330939
X447127Y330939
X447127Y348739
X421527Y348739
X472708Y307400
X472708Y289600
X498308Y289600
X498308Y307400
X449095Y258187
X449095Y240387
X423495Y240387
X423495Y258187
T07
X416610Y369366
X444169Y369366
X455980Y369366
X483539Y369366
X164642Y369366
X137083Y369366
X125272Y369366
X97713Y369366
T08
X93116Y342280
X145616Y342280
X145616Y282280
X93116Y282280
X321463Y247791
X373963Y247791
X373963Y187791
X321463Y187791
M30
