G75*
%MOIN*%
%OFA0B0*%
%FSLAX25Y25*%
%IPPOS*%
%LPD*%
%AMOC8*
5,1,8,0,0,1.08239X$1,22.5*
%
%ADD10C,0.00800*%
%ADD11C,0.00500*%
D10*
X0185669Y0172327D02*
X0202669Y0172327D01*
X0206169Y0180327D02*
X0206169Y0188256D01*
X0202669Y0196327D02*
X0185669Y0196327D01*
X0182169Y0188374D02*
X0182169Y0180327D01*
X0187169Y0184327D02*
X0187171Y0184499D01*
X0187177Y0184670D01*
X0187188Y0184842D01*
X0187203Y0185013D01*
X0187222Y0185184D01*
X0187245Y0185354D01*
X0187272Y0185524D01*
X0187304Y0185693D01*
X0187339Y0185861D01*
X0187379Y0186028D01*
X0187423Y0186194D01*
X0187470Y0186359D01*
X0187522Y0186523D01*
X0187578Y0186685D01*
X0187638Y0186846D01*
X0187702Y0187006D01*
X0187770Y0187164D01*
X0187841Y0187320D01*
X0187916Y0187474D01*
X0187996Y0187627D01*
X0188078Y0187777D01*
X0188165Y0187926D01*
X0188255Y0188072D01*
X0188349Y0188216D01*
X0188446Y0188358D01*
X0188547Y0188497D01*
X0188651Y0188634D01*
X0188758Y0188768D01*
X0188869Y0188899D01*
X0188982Y0189028D01*
X0189099Y0189154D01*
X0189219Y0189277D01*
X0189342Y0189397D01*
X0189468Y0189514D01*
X0189597Y0189627D01*
X0189728Y0189738D01*
X0189862Y0189845D01*
X0189999Y0189949D01*
X0190138Y0190050D01*
X0190280Y0190147D01*
X0190424Y0190241D01*
X0190570Y0190331D01*
X0190719Y0190418D01*
X0190869Y0190500D01*
X0191022Y0190580D01*
X0191176Y0190655D01*
X0191332Y0190726D01*
X0191490Y0190794D01*
X0191650Y0190858D01*
X0191811Y0190918D01*
X0191973Y0190974D01*
X0192137Y0191026D01*
X0192302Y0191073D01*
X0192468Y0191117D01*
X0192635Y0191157D01*
X0192803Y0191192D01*
X0192972Y0191224D01*
X0193142Y0191251D01*
X0193312Y0191274D01*
X0193483Y0191293D01*
X0193654Y0191308D01*
X0193826Y0191319D01*
X0193997Y0191325D01*
X0194169Y0191327D01*
X0194341Y0191325D01*
X0194512Y0191319D01*
X0194684Y0191308D01*
X0194855Y0191293D01*
X0195026Y0191274D01*
X0195196Y0191251D01*
X0195366Y0191224D01*
X0195535Y0191192D01*
X0195703Y0191157D01*
X0195870Y0191117D01*
X0196036Y0191073D01*
X0196201Y0191026D01*
X0196365Y0190974D01*
X0196527Y0190918D01*
X0196688Y0190858D01*
X0196848Y0190794D01*
X0197006Y0190726D01*
X0197162Y0190655D01*
X0197316Y0190580D01*
X0197469Y0190500D01*
X0197619Y0190418D01*
X0197768Y0190331D01*
X0197914Y0190241D01*
X0198058Y0190147D01*
X0198200Y0190050D01*
X0198339Y0189949D01*
X0198476Y0189845D01*
X0198610Y0189738D01*
X0198741Y0189627D01*
X0198870Y0189514D01*
X0198996Y0189397D01*
X0199119Y0189277D01*
X0199239Y0189154D01*
X0199356Y0189028D01*
X0199469Y0188899D01*
X0199580Y0188768D01*
X0199687Y0188634D01*
X0199791Y0188497D01*
X0199892Y0188358D01*
X0199989Y0188216D01*
X0200083Y0188072D01*
X0200173Y0187926D01*
X0200260Y0187777D01*
X0200342Y0187627D01*
X0200422Y0187474D01*
X0200497Y0187320D01*
X0200568Y0187164D01*
X0200636Y0187006D01*
X0200700Y0186846D01*
X0200760Y0186685D01*
X0200816Y0186523D01*
X0200868Y0186359D01*
X0200915Y0186194D01*
X0200959Y0186028D01*
X0200999Y0185861D01*
X0201034Y0185693D01*
X0201066Y0185524D01*
X0201093Y0185354D01*
X0201116Y0185184D01*
X0201135Y0185013D01*
X0201150Y0184842D01*
X0201161Y0184670D01*
X0201167Y0184499D01*
X0201169Y0184327D01*
X0201167Y0184155D01*
X0201161Y0183984D01*
X0201150Y0183812D01*
X0201135Y0183641D01*
X0201116Y0183470D01*
X0201093Y0183300D01*
X0201066Y0183130D01*
X0201034Y0182961D01*
X0200999Y0182793D01*
X0200959Y0182626D01*
X0200915Y0182460D01*
X0200868Y0182295D01*
X0200816Y0182131D01*
X0200760Y0181969D01*
X0200700Y0181808D01*
X0200636Y0181648D01*
X0200568Y0181490D01*
X0200497Y0181334D01*
X0200422Y0181180D01*
X0200342Y0181027D01*
X0200260Y0180877D01*
X0200173Y0180728D01*
X0200083Y0180582D01*
X0199989Y0180438D01*
X0199892Y0180296D01*
X0199791Y0180157D01*
X0199687Y0180020D01*
X0199580Y0179886D01*
X0199469Y0179755D01*
X0199356Y0179626D01*
X0199239Y0179500D01*
X0199119Y0179377D01*
X0198996Y0179257D01*
X0198870Y0179140D01*
X0198741Y0179027D01*
X0198610Y0178916D01*
X0198476Y0178809D01*
X0198339Y0178705D01*
X0198200Y0178604D01*
X0198058Y0178507D01*
X0197914Y0178413D01*
X0197768Y0178323D01*
X0197619Y0178236D01*
X0197469Y0178154D01*
X0197316Y0178074D01*
X0197162Y0177999D01*
X0197006Y0177928D01*
X0196848Y0177860D01*
X0196688Y0177796D01*
X0196527Y0177736D01*
X0196365Y0177680D01*
X0196201Y0177628D01*
X0196036Y0177581D01*
X0195870Y0177537D01*
X0195703Y0177497D01*
X0195535Y0177462D01*
X0195366Y0177430D01*
X0195196Y0177403D01*
X0195026Y0177380D01*
X0194855Y0177361D01*
X0194684Y0177346D01*
X0194512Y0177335D01*
X0194341Y0177329D01*
X0194169Y0177327D01*
X0193997Y0177329D01*
X0193826Y0177335D01*
X0193654Y0177346D01*
X0193483Y0177361D01*
X0193312Y0177380D01*
X0193142Y0177403D01*
X0192972Y0177430D01*
X0192803Y0177462D01*
X0192635Y0177497D01*
X0192468Y0177537D01*
X0192302Y0177581D01*
X0192137Y0177628D01*
X0191973Y0177680D01*
X0191811Y0177736D01*
X0191650Y0177796D01*
X0191490Y0177860D01*
X0191332Y0177928D01*
X0191176Y0177999D01*
X0191022Y0178074D01*
X0190869Y0178154D01*
X0190719Y0178236D01*
X0190570Y0178323D01*
X0190424Y0178413D01*
X0190280Y0178507D01*
X0190138Y0178604D01*
X0189999Y0178705D01*
X0189862Y0178809D01*
X0189728Y0178916D01*
X0189597Y0179027D01*
X0189468Y0179140D01*
X0189342Y0179257D01*
X0189219Y0179377D01*
X0189099Y0179500D01*
X0188982Y0179626D01*
X0188869Y0179755D01*
X0188758Y0179886D01*
X0188651Y0180020D01*
X0188547Y0180157D01*
X0188446Y0180296D01*
X0188349Y0180438D01*
X0188255Y0180582D01*
X0188165Y0180728D01*
X0188078Y0180877D01*
X0187996Y0181027D01*
X0187916Y0181180D01*
X0187841Y0181334D01*
X0187770Y0181490D01*
X0187702Y0181648D01*
X0187638Y0181808D01*
X0187578Y0181969D01*
X0187522Y0182131D01*
X0187470Y0182295D01*
X0187423Y0182460D01*
X0187379Y0182626D01*
X0187339Y0182793D01*
X0187304Y0182961D01*
X0187272Y0183130D01*
X0187245Y0183300D01*
X0187222Y0183470D01*
X0187203Y0183641D01*
X0187188Y0183812D01*
X0187177Y0183984D01*
X0187171Y0184155D01*
X0187169Y0184327D01*
X0154323Y0212524D02*
X0137323Y0212524D01*
X0133823Y0220524D02*
X0133823Y0228571D01*
X0137323Y0236524D02*
X0154323Y0236524D01*
X0157823Y0228453D02*
X0157823Y0220524D01*
X0138823Y0224524D02*
X0138825Y0224696D01*
X0138831Y0224867D01*
X0138842Y0225039D01*
X0138857Y0225210D01*
X0138876Y0225381D01*
X0138899Y0225551D01*
X0138926Y0225721D01*
X0138958Y0225890D01*
X0138993Y0226058D01*
X0139033Y0226225D01*
X0139077Y0226391D01*
X0139124Y0226556D01*
X0139176Y0226720D01*
X0139232Y0226882D01*
X0139292Y0227043D01*
X0139356Y0227203D01*
X0139424Y0227361D01*
X0139495Y0227517D01*
X0139570Y0227671D01*
X0139650Y0227824D01*
X0139732Y0227974D01*
X0139819Y0228123D01*
X0139909Y0228269D01*
X0140003Y0228413D01*
X0140100Y0228555D01*
X0140201Y0228694D01*
X0140305Y0228831D01*
X0140412Y0228965D01*
X0140523Y0229096D01*
X0140636Y0229225D01*
X0140753Y0229351D01*
X0140873Y0229474D01*
X0140996Y0229594D01*
X0141122Y0229711D01*
X0141251Y0229824D01*
X0141382Y0229935D01*
X0141516Y0230042D01*
X0141653Y0230146D01*
X0141792Y0230247D01*
X0141934Y0230344D01*
X0142078Y0230438D01*
X0142224Y0230528D01*
X0142373Y0230615D01*
X0142523Y0230697D01*
X0142676Y0230777D01*
X0142830Y0230852D01*
X0142986Y0230923D01*
X0143144Y0230991D01*
X0143304Y0231055D01*
X0143465Y0231115D01*
X0143627Y0231171D01*
X0143791Y0231223D01*
X0143956Y0231270D01*
X0144122Y0231314D01*
X0144289Y0231354D01*
X0144457Y0231389D01*
X0144626Y0231421D01*
X0144796Y0231448D01*
X0144966Y0231471D01*
X0145137Y0231490D01*
X0145308Y0231505D01*
X0145480Y0231516D01*
X0145651Y0231522D01*
X0145823Y0231524D01*
X0145995Y0231522D01*
X0146166Y0231516D01*
X0146338Y0231505D01*
X0146509Y0231490D01*
X0146680Y0231471D01*
X0146850Y0231448D01*
X0147020Y0231421D01*
X0147189Y0231389D01*
X0147357Y0231354D01*
X0147524Y0231314D01*
X0147690Y0231270D01*
X0147855Y0231223D01*
X0148019Y0231171D01*
X0148181Y0231115D01*
X0148342Y0231055D01*
X0148502Y0230991D01*
X0148660Y0230923D01*
X0148816Y0230852D01*
X0148970Y0230777D01*
X0149123Y0230697D01*
X0149273Y0230615D01*
X0149422Y0230528D01*
X0149568Y0230438D01*
X0149712Y0230344D01*
X0149854Y0230247D01*
X0149993Y0230146D01*
X0150130Y0230042D01*
X0150264Y0229935D01*
X0150395Y0229824D01*
X0150524Y0229711D01*
X0150650Y0229594D01*
X0150773Y0229474D01*
X0150893Y0229351D01*
X0151010Y0229225D01*
X0151123Y0229096D01*
X0151234Y0228965D01*
X0151341Y0228831D01*
X0151445Y0228694D01*
X0151546Y0228555D01*
X0151643Y0228413D01*
X0151737Y0228269D01*
X0151827Y0228123D01*
X0151914Y0227974D01*
X0151996Y0227824D01*
X0152076Y0227671D01*
X0152151Y0227517D01*
X0152222Y0227361D01*
X0152290Y0227203D01*
X0152354Y0227043D01*
X0152414Y0226882D01*
X0152470Y0226720D01*
X0152522Y0226556D01*
X0152569Y0226391D01*
X0152613Y0226225D01*
X0152653Y0226058D01*
X0152688Y0225890D01*
X0152720Y0225721D01*
X0152747Y0225551D01*
X0152770Y0225381D01*
X0152789Y0225210D01*
X0152804Y0225039D01*
X0152815Y0224867D01*
X0152821Y0224696D01*
X0152823Y0224524D01*
X0152821Y0224352D01*
X0152815Y0224181D01*
X0152804Y0224009D01*
X0152789Y0223838D01*
X0152770Y0223667D01*
X0152747Y0223497D01*
X0152720Y0223327D01*
X0152688Y0223158D01*
X0152653Y0222990D01*
X0152613Y0222823D01*
X0152569Y0222657D01*
X0152522Y0222492D01*
X0152470Y0222328D01*
X0152414Y0222166D01*
X0152354Y0222005D01*
X0152290Y0221845D01*
X0152222Y0221687D01*
X0152151Y0221531D01*
X0152076Y0221377D01*
X0151996Y0221224D01*
X0151914Y0221074D01*
X0151827Y0220925D01*
X0151737Y0220779D01*
X0151643Y0220635D01*
X0151546Y0220493D01*
X0151445Y0220354D01*
X0151341Y0220217D01*
X0151234Y0220083D01*
X0151123Y0219952D01*
X0151010Y0219823D01*
X0150893Y0219697D01*
X0150773Y0219574D01*
X0150650Y0219454D01*
X0150524Y0219337D01*
X0150395Y0219224D01*
X0150264Y0219113D01*
X0150130Y0219006D01*
X0149993Y0218902D01*
X0149854Y0218801D01*
X0149712Y0218704D01*
X0149568Y0218610D01*
X0149422Y0218520D01*
X0149273Y0218433D01*
X0149123Y0218351D01*
X0148970Y0218271D01*
X0148816Y0218196D01*
X0148660Y0218125D01*
X0148502Y0218057D01*
X0148342Y0217993D01*
X0148181Y0217933D01*
X0148019Y0217877D01*
X0147855Y0217825D01*
X0147690Y0217778D01*
X0147524Y0217734D01*
X0147357Y0217694D01*
X0147189Y0217659D01*
X0147020Y0217627D01*
X0146850Y0217600D01*
X0146680Y0217577D01*
X0146509Y0217558D01*
X0146338Y0217543D01*
X0146166Y0217532D01*
X0145995Y0217526D01*
X0145823Y0217524D01*
X0145651Y0217526D01*
X0145480Y0217532D01*
X0145308Y0217543D01*
X0145137Y0217558D01*
X0144966Y0217577D01*
X0144796Y0217600D01*
X0144626Y0217627D01*
X0144457Y0217659D01*
X0144289Y0217694D01*
X0144122Y0217734D01*
X0143956Y0217778D01*
X0143791Y0217825D01*
X0143627Y0217877D01*
X0143465Y0217933D01*
X0143304Y0217993D01*
X0143144Y0218057D01*
X0142986Y0218125D01*
X0142830Y0218196D01*
X0142676Y0218271D01*
X0142523Y0218351D01*
X0142373Y0218433D01*
X0142224Y0218520D01*
X0142078Y0218610D01*
X0141934Y0218704D01*
X0141792Y0218801D01*
X0141653Y0218902D01*
X0141516Y0219006D01*
X0141382Y0219113D01*
X0141251Y0219224D01*
X0141122Y0219337D01*
X0140996Y0219454D01*
X0140873Y0219574D01*
X0140753Y0219697D01*
X0140636Y0219823D01*
X0140523Y0219952D01*
X0140412Y0220083D01*
X0140305Y0220217D01*
X0140201Y0220354D01*
X0140100Y0220493D01*
X0140003Y0220635D01*
X0139909Y0220779D01*
X0139819Y0220925D01*
X0139732Y0221074D01*
X0139650Y0221224D01*
X0139570Y0221377D01*
X0139495Y0221531D01*
X0139424Y0221687D01*
X0139356Y0221845D01*
X0139292Y0222005D01*
X0139232Y0222166D01*
X0139176Y0222328D01*
X0139124Y0222492D01*
X0139077Y0222657D01*
X0139033Y0222823D01*
X0138993Y0222990D01*
X0138958Y0223158D01*
X0138926Y0223327D01*
X0138899Y0223497D01*
X0138876Y0223667D01*
X0138857Y0223838D01*
X0138842Y0224009D01*
X0138831Y0224181D01*
X0138825Y0224352D01*
X0138823Y0224524D01*
X0185669Y0260909D02*
X0202669Y0260909D01*
X0206169Y0268909D02*
X0206169Y0276839D01*
X0202669Y0284909D02*
X0185669Y0284909D01*
X0182169Y0276957D02*
X0182169Y0268909D01*
X0187169Y0272909D02*
X0187171Y0273081D01*
X0187177Y0273252D01*
X0187188Y0273424D01*
X0187203Y0273595D01*
X0187222Y0273766D01*
X0187245Y0273936D01*
X0187272Y0274106D01*
X0187304Y0274275D01*
X0187339Y0274443D01*
X0187379Y0274610D01*
X0187423Y0274776D01*
X0187470Y0274941D01*
X0187522Y0275105D01*
X0187578Y0275267D01*
X0187638Y0275428D01*
X0187702Y0275588D01*
X0187770Y0275746D01*
X0187841Y0275902D01*
X0187916Y0276056D01*
X0187996Y0276209D01*
X0188078Y0276359D01*
X0188165Y0276508D01*
X0188255Y0276654D01*
X0188349Y0276798D01*
X0188446Y0276940D01*
X0188547Y0277079D01*
X0188651Y0277216D01*
X0188758Y0277350D01*
X0188869Y0277481D01*
X0188982Y0277610D01*
X0189099Y0277736D01*
X0189219Y0277859D01*
X0189342Y0277979D01*
X0189468Y0278096D01*
X0189597Y0278209D01*
X0189728Y0278320D01*
X0189862Y0278427D01*
X0189999Y0278531D01*
X0190138Y0278632D01*
X0190280Y0278729D01*
X0190424Y0278823D01*
X0190570Y0278913D01*
X0190719Y0279000D01*
X0190869Y0279082D01*
X0191022Y0279162D01*
X0191176Y0279237D01*
X0191332Y0279308D01*
X0191490Y0279376D01*
X0191650Y0279440D01*
X0191811Y0279500D01*
X0191973Y0279556D01*
X0192137Y0279608D01*
X0192302Y0279655D01*
X0192468Y0279699D01*
X0192635Y0279739D01*
X0192803Y0279774D01*
X0192972Y0279806D01*
X0193142Y0279833D01*
X0193312Y0279856D01*
X0193483Y0279875D01*
X0193654Y0279890D01*
X0193826Y0279901D01*
X0193997Y0279907D01*
X0194169Y0279909D01*
X0194341Y0279907D01*
X0194512Y0279901D01*
X0194684Y0279890D01*
X0194855Y0279875D01*
X0195026Y0279856D01*
X0195196Y0279833D01*
X0195366Y0279806D01*
X0195535Y0279774D01*
X0195703Y0279739D01*
X0195870Y0279699D01*
X0196036Y0279655D01*
X0196201Y0279608D01*
X0196365Y0279556D01*
X0196527Y0279500D01*
X0196688Y0279440D01*
X0196848Y0279376D01*
X0197006Y0279308D01*
X0197162Y0279237D01*
X0197316Y0279162D01*
X0197469Y0279082D01*
X0197619Y0279000D01*
X0197768Y0278913D01*
X0197914Y0278823D01*
X0198058Y0278729D01*
X0198200Y0278632D01*
X0198339Y0278531D01*
X0198476Y0278427D01*
X0198610Y0278320D01*
X0198741Y0278209D01*
X0198870Y0278096D01*
X0198996Y0277979D01*
X0199119Y0277859D01*
X0199239Y0277736D01*
X0199356Y0277610D01*
X0199469Y0277481D01*
X0199580Y0277350D01*
X0199687Y0277216D01*
X0199791Y0277079D01*
X0199892Y0276940D01*
X0199989Y0276798D01*
X0200083Y0276654D01*
X0200173Y0276508D01*
X0200260Y0276359D01*
X0200342Y0276209D01*
X0200422Y0276056D01*
X0200497Y0275902D01*
X0200568Y0275746D01*
X0200636Y0275588D01*
X0200700Y0275428D01*
X0200760Y0275267D01*
X0200816Y0275105D01*
X0200868Y0274941D01*
X0200915Y0274776D01*
X0200959Y0274610D01*
X0200999Y0274443D01*
X0201034Y0274275D01*
X0201066Y0274106D01*
X0201093Y0273936D01*
X0201116Y0273766D01*
X0201135Y0273595D01*
X0201150Y0273424D01*
X0201161Y0273252D01*
X0201167Y0273081D01*
X0201169Y0272909D01*
X0201167Y0272737D01*
X0201161Y0272566D01*
X0201150Y0272394D01*
X0201135Y0272223D01*
X0201116Y0272052D01*
X0201093Y0271882D01*
X0201066Y0271712D01*
X0201034Y0271543D01*
X0200999Y0271375D01*
X0200959Y0271208D01*
X0200915Y0271042D01*
X0200868Y0270877D01*
X0200816Y0270713D01*
X0200760Y0270551D01*
X0200700Y0270390D01*
X0200636Y0270230D01*
X0200568Y0270072D01*
X0200497Y0269916D01*
X0200422Y0269762D01*
X0200342Y0269609D01*
X0200260Y0269459D01*
X0200173Y0269310D01*
X0200083Y0269164D01*
X0199989Y0269020D01*
X0199892Y0268878D01*
X0199791Y0268739D01*
X0199687Y0268602D01*
X0199580Y0268468D01*
X0199469Y0268337D01*
X0199356Y0268208D01*
X0199239Y0268082D01*
X0199119Y0267959D01*
X0198996Y0267839D01*
X0198870Y0267722D01*
X0198741Y0267609D01*
X0198610Y0267498D01*
X0198476Y0267391D01*
X0198339Y0267287D01*
X0198200Y0267186D01*
X0198058Y0267089D01*
X0197914Y0266995D01*
X0197768Y0266905D01*
X0197619Y0266818D01*
X0197469Y0266736D01*
X0197316Y0266656D01*
X0197162Y0266581D01*
X0197006Y0266510D01*
X0196848Y0266442D01*
X0196688Y0266378D01*
X0196527Y0266318D01*
X0196365Y0266262D01*
X0196201Y0266210D01*
X0196036Y0266163D01*
X0195870Y0266119D01*
X0195703Y0266079D01*
X0195535Y0266044D01*
X0195366Y0266012D01*
X0195196Y0265985D01*
X0195026Y0265962D01*
X0194855Y0265943D01*
X0194684Y0265928D01*
X0194512Y0265917D01*
X0194341Y0265911D01*
X0194169Y0265909D01*
X0193997Y0265911D01*
X0193826Y0265917D01*
X0193654Y0265928D01*
X0193483Y0265943D01*
X0193312Y0265962D01*
X0193142Y0265985D01*
X0192972Y0266012D01*
X0192803Y0266044D01*
X0192635Y0266079D01*
X0192468Y0266119D01*
X0192302Y0266163D01*
X0192137Y0266210D01*
X0191973Y0266262D01*
X0191811Y0266318D01*
X0191650Y0266378D01*
X0191490Y0266442D01*
X0191332Y0266510D01*
X0191176Y0266581D01*
X0191022Y0266656D01*
X0190869Y0266736D01*
X0190719Y0266818D01*
X0190570Y0266905D01*
X0190424Y0266995D01*
X0190280Y0267089D01*
X0190138Y0267186D01*
X0189999Y0267287D01*
X0189862Y0267391D01*
X0189728Y0267498D01*
X0189597Y0267609D01*
X0189468Y0267722D01*
X0189342Y0267839D01*
X0189219Y0267959D01*
X0189099Y0268082D01*
X0188982Y0268208D01*
X0188869Y0268337D01*
X0188758Y0268468D01*
X0188651Y0268602D01*
X0188547Y0268739D01*
X0188446Y0268878D01*
X0188349Y0269020D01*
X0188255Y0269164D01*
X0188165Y0269310D01*
X0188078Y0269459D01*
X0187996Y0269609D01*
X0187916Y0269762D01*
X0187841Y0269916D01*
X0187770Y0270072D01*
X0187702Y0270230D01*
X0187638Y0270390D01*
X0187578Y0270551D01*
X0187522Y0270713D01*
X0187470Y0270877D01*
X0187423Y0271042D01*
X0187379Y0271208D01*
X0187339Y0271375D01*
X0187304Y0271543D01*
X0187272Y0271712D01*
X0187245Y0271882D01*
X0187222Y0272052D01*
X0187203Y0272223D01*
X0187188Y0272394D01*
X0187177Y0272566D01*
X0187171Y0272737D01*
X0187169Y0272909D01*
X0164366Y0293280D02*
X0154366Y0293280D01*
X0154366Y0282280D01*
X0138366Y0282280D01*
X0138366Y0268280D01*
X0100366Y0268280D01*
X0100366Y0282280D01*
X0091866Y0282280D01*
X0091866Y0290280D01*
X0064366Y0290280D01*
X0064366Y0334280D01*
X0091866Y0334280D01*
X0091866Y0342280D01*
X0103366Y0342280D01*
X0103366Y0349780D01*
X0135366Y0349780D01*
X0135366Y0342280D01*
X0154366Y0342280D01*
X0154366Y0331280D01*
X0164366Y0331280D01*
X0164366Y0293280D01*
X0116866Y0312280D02*
X0116868Y0312379D01*
X0116874Y0312479D01*
X0116884Y0312578D01*
X0116898Y0312676D01*
X0116915Y0312774D01*
X0116937Y0312871D01*
X0116962Y0312967D01*
X0116991Y0313062D01*
X0117024Y0313156D01*
X0117061Y0313248D01*
X0117101Y0313339D01*
X0117145Y0313428D01*
X0117193Y0313516D01*
X0117244Y0313601D01*
X0117298Y0313684D01*
X0117355Y0313766D01*
X0117416Y0313844D01*
X0117480Y0313921D01*
X0117546Y0313994D01*
X0117616Y0314065D01*
X0117688Y0314133D01*
X0117763Y0314199D01*
X0117841Y0314261D01*
X0117921Y0314320D01*
X0118003Y0314376D01*
X0118087Y0314428D01*
X0118174Y0314477D01*
X0118262Y0314523D01*
X0118352Y0314565D01*
X0118444Y0314604D01*
X0118537Y0314639D01*
X0118631Y0314670D01*
X0118727Y0314697D01*
X0118824Y0314720D01*
X0118921Y0314740D01*
X0119019Y0314756D01*
X0119118Y0314768D01*
X0119217Y0314776D01*
X0119316Y0314780D01*
X0119416Y0314780D01*
X0119515Y0314776D01*
X0119614Y0314768D01*
X0119713Y0314756D01*
X0119811Y0314740D01*
X0119908Y0314720D01*
X0120005Y0314697D01*
X0120101Y0314670D01*
X0120195Y0314639D01*
X0120288Y0314604D01*
X0120380Y0314565D01*
X0120470Y0314523D01*
X0120558Y0314477D01*
X0120645Y0314428D01*
X0120729Y0314376D01*
X0120811Y0314320D01*
X0120891Y0314261D01*
X0120969Y0314199D01*
X0121044Y0314133D01*
X0121116Y0314065D01*
X0121186Y0313994D01*
X0121252Y0313921D01*
X0121316Y0313844D01*
X0121377Y0313766D01*
X0121434Y0313684D01*
X0121488Y0313601D01*
X0121539Y0313516D01*
X0121587Y0313428D01*
X0121631Y0313339D01*
X0121671Y0313248D01*
X0121708Y0313156D01*
X0121741Y0313062D01*
X0121770Y0312967D01*
X0121795Y0312871D01*
X0121817Y0312774D01*
X0121834Y0312676D01*
X0121848Y0312578D01*
X0121858Y0312479D01*
X0121864Y0312379D01*
X0121866Y0312280D01*
X0121864Y0312181D01*
X0121858Y0312081D01*
X0121848Y0311982D01*
X0121834Y0311884D01*
X0121817Y0311786D01*
X0121795Y0311689D01*
X0121770Y0311593D01*
X0121741Y0311498D01*
X0121708Y0311404D01*
X0121671Y0311312D01*
X0121631Y0311221D01*
X0121587Y0311132D01*
X0121539Y0311044D01*
X0121488Y0310959D01*
X0121434Y0310876D01*
X0121377Y0310794D01*
X0121316Y0310716D01*
X0121252Y0310639D01*
X0121186Y0310566D01*
X0121116Y0310495D01*
X0121044Y0310427D01*
X0120969Y0310361D01*
X0120891Y0310299D01*
X0120811Y0310240D01*
X0120729Y0310184D01*
X0120645Y0310132D01*
X0120558Y0310083D01*
X0120470Y0310037D01*
X0120380Y0309995D01*
X0120288Y0309956D01*
X0120195Y0309921D01*
X0120101Y0309890D01*
X0120005Y0309863D01*
X0119908Y0309840D01*
X0119811Y0309820D01*
X0119713Y0309804D01*
X0119614Y0309792D01*
X0119515Y0309784D01*
X0119416Y0309780D01*
X0119316Y0309780D01*
X0119217Y0309784D01*
X0119118Y0309792D01*
X0119019Y0309804D01*
X0118921Y0309820D01*
X0118824Y0309840D01*
X0118727Y0309863D01*
X0118631Y0309890D01*
X0118537Y0309921D01*
X0118444Y0309956D01*
X0118352Y0309995D01*
X0118262Y0310037D01*
X0118174Y0310083D01*
X0118087Y0310132D01*
X0118003Y0310184D01*
X0117921Y0310240D01*
X0117841Y0310299D01*
X0117763Y0310361D01*
X0117688Y0310427D01*
X0117616Y0310495D01*
X0117546Y0310566D01*
X0117480Y0310639D01*
X0117416Y0310716D01*
X0117355Y0310794D01*
X0117298Y0310876D01*
X0117244Y0310959D01*
X0117193Y0311044D01*
X0117145Y0311132D01*
X0117101Y0311221D01*
X0117061Y0311312D01*
X0117024Y0311404D01*
X0116991Y0311498D01*
X0116962Y0311593D01*
X0116937Y0311689D01*
X0116915Y0311786D01*
X0116898Y0311884D01*
X0116884Y0311982D01*
X0116874Y0312081D01*
X0116868Y0312181D01*
X0116866Y0312280D01*
X0119366Y0370835D02*
X0103618Y0370835D01*
X0096622Y0375272D02*
X0096622Y0387583D01*
X0126362Y0387583D01*
X0126362Y0375272D01*
X0292713Y0239791D02*
X0320213Y0239791D01*
X0320213Y0247791D01*
X0331713Y0247791D01*
X0331713Y0255291D01*
X0363713Y0255291D01*
X0363713Y0247791D01*
X0382713Y0247791D01*
X0382713Y0236791D01*
X0392713Y0236791D01*
X0392713Y0198791D01*
X0382713Y0198791D01*
X0382713Y0187791D01*
X0366713Y0187791D01*
X0366713Y0173791D01*
X0328713Y0173791D01*
X0328713Y0187791D01*
X0320213Y0187791D01*
X0320213Y0195791D01*
X0292713Y0195791D01*
X0292713Y0239791D01*
X0253413Y0229594D02*
X0253413Y0221665D01*
X0249913Y0213665D02*
X0232913Y0213665D01*
X0229413Y0221665D02*
X0229413Y0229713D01*
X0232913Y0237665D02*
X0249913Y0237665D01*
X0234413Y0225665D02*
X0234415Y0225837D01*
X0234421Y0226008D01*
X0234432Y0226180D01*
X0234447Y0226351D01*
X0234466Y0226522D01*
X0234489Y0226692D01*
X0234516Y0226862D01*
X0234548Y0227031D01*
X0234583Y0227199D01*
X0234623Y0227366D01*
X0234667Y0227532D01*
X0234714Y0227697D01*
X0234766Y0227861D01*
X0234822Y0228023D01*
X0234882Y0228184D01*
X0234946Y0228344D01*
X0235014Y0228502D01*
X0235085Y0228658D01*
X0235160Y0228812D01*
X0235240Y0228965D01*
X0235322Y0229115D01*
X0235409Y0229264D01*
X0235499Y0229410D01*
X0235593Y0229554D01*
X0235690Y0229696D01*
X0235791Y0229835D01*
X0235895Y0229972D01*
X0236002Y0230106D01*
X0236113Y0230237D01*
X0236226Y0230366D01*
X0236343Y0230492D01*
X0236463Y0230615D01*
X0236586Y0230735D01*
X0236712Y0230852D01*
X0236841Y0230965D01*
X0236972Y0231076D01*
X0237106Y0231183D01*
X0237243Y0231287D01*
X0237382Y0231388D01*
X0237524Y0231485D01*
X0237668Y0231579D01*
X0237814Y0231669D01*
X0237963Y0231756D01*
X0238113Y0231838D01*
X0238266Y0231918D01*
X0238420Y0231993D01*
X0238576Y0232064D01*
X0238734Y0232132D01*
X0238894Y0232196D01*
X0239055Y0232256D01*
X0239217Y0232312D01*
X0239381Y0232364D01*
X0239546Y0232411D01*
X0239712Y0232455D01*
X0239879Y0232495D01*
X0240047Y0232530D01*
X0240216Y0232562D01*
X0240386Y0232589D01*
X0240556Y0232612D01*
X0240727Y0232631D01*
X0240898Y0232646D01*
X0241070Y0232657D01*
X0241241Y0232663D01*
X0241413Y0232665D01*
X0241585Y0232663D01*
X0241756Y0232657D01*
X0241928Y0232646D01*
X0242099Y0232631D01*
X0242270Y0232612D01*
X0242440Y0232589D01*
X0242610Y0232562D01*
X0242779Y0232530D01*
X0242947Y0232495D01*
X0243114Y0232455D01*
X0243280Y0232411D01*
X0243445Y0232364D01*
X0243609Y0232312D01*
X0243771Y0232256D01*
X0243932Y0232196D01*
X0244092Y0232132D01*
X0244250Y0232064D01*
X0244406Y0231993D01*
X0244560Y0231918D01*
X0244713Y0231838D01*
X0244863Y0231756D01*
X0245012Y0231669D01*
X0245158Y0231579D01*
X0245302Y0231485D01*
X0245444Y0231388D01*
X0245583Y0231287D01*
X0245720Y0231183D01*
X0245854Y0231076D01*
X0245985Y0230965D01*
X0246114Y0230852D01*
X0246240Y0230735D01*
X0246363Y0230615D01*
X0246483Y0230492D01*
X0246600Y0230366D01*
X0246713Y0230237D01*
X0246824Y0230106D01*
X0246931Y0229972D01*
X0247035Y0229835D01*
X0247136Y0229696D01*
X0247233Y0229554D01*
X0247327Y0229410D01*
X0247417Y0229264D01*
X0247504Y0229115D01*
X0247586Y0228965D01*
X0247666Y0228812D01*
X0247741Y0228658D01*
X0247812Y0228502D01*
X0247880Y0228344D01*
X0247944Y0228184D01*
X0248004Y0228023D01*
X0248060Y0227861D01*
X0248112Y0227697D01*
X0248159Y0227532D01*
X0248203Y0227366D01*
X0248243Y0227199D01*
X0248278Y0227031D01*
X0248310Y0226862D01*
X0248337Y0226692D01*
X0248360Y0226522D01*
X0248379Y0226351D01*
X0248394Y0226180D01*
X0248405Y0226008D01*
X0248411Y0225837D01*
X0248413Y0225665D01*
X0248411Y0225493D01*
X0248405Y0225322D01*
X0248394Y0225150D01*
X0248379Y0224979D01*
X0248360Y0224808D01*
X0248337Y0224638D01*
X0248310Y0224468D01*
X0248278Y0224299D01*
X0248243Y0224131D01*
X0248203Y0223964D01*
X0248159Y0223798D01*
X0248112Y0223633D01*
X0248060Y0223469D01*
X0248004Y0223307D01*
X0247944Y0223146D01*
X0247880Y0222986D01*
X0247812Y0222828D01*
X0247741Y0222672D01*
X0247666Y0222518D01*
X0247586Y0222365D01*
X0247504Y0222215D01*
X0247417Y0222066D01*
X0247327Y0221920D01*
X0247233Y0221776D01*
X0247136Y0221634D01*
X0247035Y0221495D01*
X0246931Y0221358D01*
X0246824Y0221224D01*
X0246713Y0221093D01*
X0246600Y0220964D01*
X0246483Y0220838D01*
X0246363Y0220715D01*
X0246240Y0220595D01*
X0246114Y0220478D01*
X0245985Y0220365D01*
X0245854Y0220254D01*
X0245720Y0220147D01*
X0245583Y0220043D01*
X0245444Y0219942D01*
X0245302Y0219845D01*
X0245158Y0219751D01*
X0245012Y0219661D01*
X0244863Y0219574D01*
X0244713Y0219492D01*
X0244560Y0219412D01*
X0244406Y0219337D01*
X0244250Y0219266D01*
X0244092Y0219198D01*
X0243932Y0219134D01*
X0243771Y0219074D01*
X0243609Y0219018D01*
X0243445Y0218966D01*
X0243280Y0218919D01*
X0243114Y0218875D01*
X0242947Y0218835D01*
X0242779Y0218800D01*
X0242610Y0218768D01*
X0242440Y0218741D01*
X0242270Y0218718D01*
X0242099Y0218699D01*
X0241928Y0218684D01*
X0241756Y0218673D01*
X0241585Y0218667D01*
X0241413Y0218665D01*
X0241241Y0218667D01*
X0241070Y0218673D01*
X0240898Y0218684D01*
X0240727Y0218699D01*
X0240556Y0218718D01*
X0240386Y0218741D01*
X0240216Y0218768D01*
X0240047Y0218800D01*
X0239879Y0218835D01*
X0239712Y0218875D01*
X0239546Y0218919D01*
X0239381Y0218966D01*
X0239217Y0219018D01*
X0239055Y0219074D01*
X0238894Y0219134D01*
X0238734Y0219198D01*
X0238576Y0219266D01*
X0238420Y0219337D01*
X0238266Y0219412D01*
X0238113Y0219492D01*
X0237963Y0219574D01*
X0237814Y0219661D01*
X0237668Y0219751D01*
X0237524Y0219845D01*
X0237382Y0219942D01*
X0237243Y0220043D01*
X0237106Y0220147D01*
X0236972Y0220254D01*
X0236841Y0220365D01*
X0236712Y0220478D01*
X0236586Y0220595D01*
X0236463Y0220715D01*
X0236343Y0220838D01*
X0236226Y0220964D01*
X0236113Y0221093D01*
X0236002Y0221224D01*
X0235895Y0221358D01*
X0235791Y0221495D01*
X0235690Y0221634D01*
X0235593Y0221776D01*
X0235499Y0221920D01*
X0235409Y0222066D01*
X0235322Y0222215D01*
X0235240Y0222365D01*
X0235160Y0222518D01*
X0235085Y0222672D01*
X0235014Y0222828D01*
X0234946Y0222986D01*
X0234882Y0223146D01*
X0234822Y0223307D01*
X0234766Y0223469D01*
X0234714Y0223633D01*
X0234667Y0223798D01*
X0234623Y0223964D01*
X0234583Y0224131D01*
X0234548Y0224299D01*
X0234516Y0224468D01*
X0234489Y0224638D01*
X0234466Y0224808D01*
X0234447Y0224979D01*
X0234432Y0225150D01*
X0234421Y0225322D01*
X0234415Y0225493D01*
X0234413Y0225665D01*
X0345213Y0217791D02*
X0345215Y0217890D01*
X0345221Y0217990D01*
X0345231Y0218089D01*
X0345245Y0218187D01*
X0345262Y0218285D01*
X0345284Y0218382D01*
X0345309Y0218478D01*
X0345338Y0218573D01*
X0345371Y0218667D01*
X0345408Y0218759D01*
X0345448Y0218850D01*
X0345492Y0218939D01*
X0345540Y0219027D01*
X0345591Y0219112D01*
X0345645Y0219195D01*
X0345702Y0219277D01*
X0345763Y0219355D01*
X0345827Y0219432D01*
X0345893Y0219505D01*
X0345963Y0219576D01*
X0346035Y0219644D01*
X0346110Y0219710D01*
X0346188Y0219772D01*
X0346268Y0219831D01*
X0346350Y0219887D01*
X0346434Y0219939D01*
X0346521Y0219988D01*
X0346609Y0220034D01*
X0346699Y0220076D01*
X0346791Y0220115D01*
X0346884Y0220150D01*
X0346978Y0220181D01*
X0347074Y0220208D01*
X0347171Y0220231D01*
X0347268Y0220251D01*
X0347366Y0220267D01*
X0347465Y0220279D01*
X0347564Y0220287D01*
X0347663Y0220291D01*
X0347763Y0220291D01*
X0347862Y0220287D01*
X0347961Y0220279D01*
X0348060Y0220267D01*
X0348158Y0220251D01*
X0348255Y0220231D01*
X0348352Y0220208D01*
X0348448Y0220181D01*
X0348542Y0220150D01*
X0348635Y0220115D01*
X0348727Y0220076D01*
X0348817Y0220034D01*
X0348905Y0219988D01*
X0348992Y0219939D01*
X0349076Y0219887D01*
X0349158Y0219831D01*
X0349238Y0219772D01*
X0349316Y0219710D01*
X0349391Y0219644D01*
X0349463Y0219576D01*
X0349533Y0219505D01*
X0349599Y0219432D01*
X0349663Y0219355D01*
X0349724Y0219277D01*
X0349781Y0219195D01*
X0349835Y0219112D01*
X0349886Y0219027D01*
X0349934Y0218939D01*
X0349978Y0218850D01*
X0350018Y0218759D01*
X0350055Y0218667D01*
X0350088Y0218573D01*
X0350117Y0218478D01*
X0350142Y0218382D01*
X0350164Y0218285D01*
X0350181Y0218187D01*
X0350195Y0218089D01*
X0350205Y0217990D01*
X0350211Y0217890D01*
X0350213Y0217791D01*
X0350211Y0217692D01*
X0350205Y0217592D01*
X0350195Y0217493D01*
X0350181Y0217395D01*
X0350164Y0217297D01*
X0350142Y0217200D01*
X0350117Y0217104D01*
X0350088Y0217009D01*
X0350055Y0216915D01*
X0350018Y0216823D01*
X0349978Y0216732D01*
X0349934Y0216643D01*
X0349886Y0216555D01*
X0349835Y0216470D01*
X0349781Y0216387D01*
X0349724Y0216305D01*
X0349663Y0216227D01*
X0349599Y0216150D01*
X0349533Y0216077D01*
X0349463Y0216006D01*
X0349391Y0215938D01*
X0349316Y0215872D01*
X0349238Y0215810D01*
X0349158Y0215751D01*
X0349076Y0215695D01*
X0348992Y0215643D01*
X0348905Y0215594D01*
X0348817Y0215548D01*
X0348727Y0215506D01*
X0348635Y0215467D01*
X0348542Y0215432D01*
X0348448Y0215401D01*
X0348352Y0215374D01*
X0348255Y0215351D01*
X0348158Y0215331D01*
X0348060Y0215315D01*
X0347961Y0215303D01*
X0347862Y0215295D01*
X0347763Y0215291D01*
X0347663Y0215291D01*
X0347564Y0215295D01*
X0347465Y0215303D01*
X0347366Y0215315D01*
X0347268Y0215331D01*
X0347171Y0215351D01*
X0347074Y0215374D01*
X0346978Y0215401D01*
X0346884Y0215432D01*
X0346791Y0215467D01*
X0346699Y0215506D01*
X0346609Y0215548D01*
X0346521Y0215594D01*
X0346434Y0215643D01*
X0346350Y0215695D01*
X0346268Y0215751D01*
X0346188Y0215810D01*
X0346110Y0215872D01*
X0346035Y0215938D01*
X0345963Y0216006D01*
X0345893Y0216077D01*
X0345827Y0216150D01*
X0345763Y0216227D01*
X0345702Y0216305D01*
X0345645Y0216387D01*
X0345591Y0216470D01*
X0345540Y0216555D01*
X0345492Y0216643D01*
X0345448Y0216732D01*
X0345408Y0216823D01*
X0345371Y0216915D01*
X0345338Y0217009D01*
X0345309Y0217104D01*
X0345284Y0217200D01*
X0345262Y0217297D01*
X0345245Y0217395D01*
X0345231Y0217493D01*
X0345221Y0217592D01*
X0345215Y0217692D01*
X0345213Y0217791D01*
X0424295Y0245287D02*
X0424295Y0253335D01*
X0427795Y0261287D02*
X0444795Y0261287D01*
X0448295Y0253217D02*
X0448295Y0245287D01*
X0444795Y0237287D02*
X0427795Y0237287D01*
X0429295Y0249287D02*
X0429297Y0249459D01*
X0429303Y0249630D01*
X0429314Y0249802D01*
X0429329Y0249973D01*
X0429348Y0250144D01*
X0429371Y0250314D01*
X0429398Y0250484D01*
X0429430Y0250653D01*
X0429465Y0250821D01*
X0429505Y0250988D01*
X0429549Y0251154D01*
X0429596Y0251319D01*
X0429648Y0251483D01*
X0429704Y0251645D01*
X0429764Y0251806D01*
X0429828Y0251966D01*
X0429896Y0252124D01*
X0429967Y0252280D01*
X0430042Y0252434D01*
X0430122Y0252587D01*
X0430204Y0252737D01*
X0430291Y0252886D01*
X0430381Y0253032D01*
X0430475Y0253176D01*
X0430572Y0253318D01*
X0430673Y0253457D01*
X0430777Y0253594D01*
X0430884Y0253728D01*
X0430995Y0253859D01*
X0431108Y0253988D01*
X0431225Y0254114D01*
X0431345Y0254237D01*
X0431468Y0254357D01*
X0431594Y0254474D01*
X0431723Y0254587D01*
X0431854Y0254698D01*
X0431988Y0254805D01*
X0432125Y0254909D01*
X0432264Y0255010D01*
X0432406Y0255107D01*
X0432550Y0255201D01*
X0432696Y0255291D01*
X0432845Y0255378D01*
X0432995Y0255460D01*
X0433148Y0255540D01*
X0433302Y0255615D01*
X0433458Y0255686D01*
X0433616Y0255754D01*
X0433776Y0255818D01*
X0433937Y0255878D01*
X0434099Y0255934D01*
X0434263Y0255986D01*
X0434428Y0256033D01*
X0434594Y0256077D01*
X0434761Y0256117D01*
X0434929Y0256152D01*
X0435098Y0256184D01*
X0435268Y0256211D01*
X0435438Y0256234D01*
X0435609Y0256253D01*
X0435780Y0256268D01*
X0435952Y0256279D01*
X0436123Y0256285D01*
X0436295Y0256287D01*
X0436467Y0256285D01*
X0436638Y0256279D01*
X0436810Y0256268D01*
X0436981Y0256253D01*
X0437152Y0256234D01*
X0437322Y0256211D01*
X0437492Y0256184D01*
X0437661Y0256152D01*
X0437829Y0256117D01*
X0437996Y0256077D01*
X0438162Y0256033D01*
X0438327Y0255986D01*
X0438491Y0255934D01*
X0438653Y0255878D01*
X0438814Y0255818D01*
X0438974Y0255754D01*
X0439132Y0255686D01*
X0439288Y0255615D01*
X0439442Y0255540D01*
X0439595Y0255460D01*
X0439745Y0255378D01*
X0439894Y0255291D01*
X0440040Y0255201D01*
X0440184Y0255107D01*
X0440326Y0255010D01*
X0440465Y0254909D01*
X0440602Y0254805D01*
X0440736Y0254698D01*
X0440867Y0254587D01*
X0440996Y0254474D01*
X0441122Y0254357D01*
X0441245Y0254237D01*
X0441365Y0254114D01*
X0441482Y0253988D01*
X0441595Y0253859D01*
X0441706Y0253728D01*
X0441813Y0253594D01*
X0441917Y0253457D01*
X0442018Y0253318D01*
X0442115Y0253176D01*
X0442209Y0253032D01*
X0442299Y0252886D01*
X0442386Y0252737D01*
X0442468Y0252587D01*
X0442548Y0252434D01*
X0442623Y0252280D01*
X0442694Y0252124D01*
X0442762Y0251966D01*
X0442826Y0251806D01*
X0442886Y0251645D01*
X0442942Y0251483D01*
X0442994Y0251319D01*
X0443041Y0251154D01*
X0443085Y0250988D01*
X0443125Y0250821D01*
X0443160Y0250653D01*
X0443192Y0250484D01*
X0443219Y0250314D01*
X0443242Y0250144D01*
X0443261Y0249973D01*
X0443276Y0249802D01*
X0443287Y0249630D01*
X0443293Y0249459D01*
X0443295Y0249287D01*
X0443293Y0249115D01*
X0443287Y0248944D01*
X0443276Y0248772D01*
X0443261Y0248601D01*
X0443242Y0248430D01*
X0443219Y0248260D01*
X0443192Y0248090D01*
X0443160Y0247921D01*
X0443125Y0247753D01*
X0443085Y0247586D01*
X0443041Y0247420D01*
X0442994Y0247255D01*
X0442942Y0247091D01*
X0442886Y0246929D01*
X0442826Y0246768D01*
X0442762Y0246608D01*
X0442694Y0246450D01*
X0442623Y0246294D01*
X0442548Y0246140D01*
X0442468Y0245987D01*
X0442386Y0245837D01*
X0442299Y0245688D01*
X0442209Y0245542D01*
X0442115Y0245398D01*
X0442018Y0245256D01*
X0441917Y0245117D01*
X0441813Y0244980D01*
X0441706Y0244846D01*
X0441595Y0244715D01*
X0441482Y0244586D01*
X0441365Y0244460D01*
X0441245Y0244337D01*
X0441122Y0244217D01*
X0440996Y0244100D01*
X0440867Y0243987D01*
X0440736Y0243876D01*
X0440602Y0243769D01*
X0440465Y0243665D01*
X0440326Y0243564D01*
X0440184Y0243467D01*
X0440040Y0243373D01*
X0439894Y0243283D01*
X0439745Y0243196D01*
X0439595Y0243114D01*
X0439442Y0243034D01*
X0439288Y0242959D01*
X0439132Y0242888D01*
X0438974Y0242820D01*
X0438814Y0242756D01*
X0438653Y0242696D01*
X0438491Y0242640D01*
X0438327Y0242588D01*
X0438162Y0242541D01*
X0437996Y0242497D01*
X0437829Y0242457D01*
X0437661Y0242422D01*
X0437492Y0242390D01*
X0437322Y0242363D01*
X0437152Y0242340D01*
X0436981Y0242321D01*
X0436810Y0242306D01*
X0436638Y0242295D01*
X0436467Y0242289D01*
X0436295Y0242287D01*
X0436123Y0242289D01*
X0435952Y0242295D01*
X0435780Y0242306D01*
X0435609Y0242321D01*
X0435438Y0242340D01*
X0435268Y0242363D01*
X0435098Y0242390D01*
X0434929Y0242422D01*
X0434761Y0242457D01*
X0434594Y0242497D01*
X0434428Y0242541D01*
X0434263Y0242588D01*
X0434099Y0242640D01*
X0433937Y0242696D01*
X0433776Y0242756D01*
X0433616Y0242820D01*
X0433458Y0242888D01*
X0433302Y0242959D01*
X0433148Y0243034D01*
X0432995Y0243114D01*
X0432845Y0243196D01*
X0432696Y0243283D01*
X0432550Y0243373D01*
X0432406Y0243467D01*
X0432264Y0243564D01*
X0432125Y0243665D01*
X0431988Y0243769D01*
X0431854Y0243876D01*
X0431723Y0243987D01*
X0431594Y0244100D01*
X0431468Y0244217D01*
X0431345Y0244337D01*
X0431225Y0244460D01*
X0431108Y0244586D01*
X0430995Y0244715D01*
X0430884Y0244846D01*
X0430777Y0244980D01*
X0430673Y0245117D01*
X0430572Y0245256D01*
X0430475Y0245398D01*
X0430381Y0245542D01*
X0430291Y0245688D01*
X0430204Y0245837D01*
X0430122Y0245987D01*
X0430042Y0246140D01*
X0429967Y0246294D01*
X0429896Y0246450D01*
X0429828Y0246608D01*
X0429764Y0246768D01*
X0429704Y0246929D01*
X0429648Y0247091D01*
X0429596Y0247255D01*
X0429549Y0247420D01*
X0429505Y0247586D01*
X0429465Y0247753D01*
X0429430Y0247921D01*
X0429398Y0248090D01*
X0429371Y0248260D01*
X0429348Y0248430D01*
X0429329Y0248601D01*
X0429314Y0248772D01*
X0429303Y0248944D01*
X0429297Y0249115D01*
X0429295Y0249287D01*
X0391646Y0286500D02*
X0374646Y0286500D01*
X0371146Y0294500D02*
X0371146Y0302547D01*
X0374646Y0310500D02*
X0391646Y0310500D01*
X0395146Y0302429D02*
X0395146Y0294500D01*
X0376146Y0298500D02*
X0376148Y0298672D01*
X0376154Y0298843D01*
X0376165Y0299015D01*
X0376180Y0299186D01*
X0376199Y0299357D01*
X0376222Y0299527D01*
X0376249Y0299697D01*
X0376281Y0299866D01*
X0376316Y0300034D01*
X0376356Y0300201D01*
X0376400Y0300367D01*
X0376447Y0300532D01*
X0376499Y0300696D01*
X0376555Y0300858D01*
X0376615Y0301019D01*
X0376679Y0301179D01*
X0376747Y0301337D01*
X0376818Y0301493D01*
X0376893Y0301647D01*
X0376973Y0301800D01*
X0377055Y0301950D01*
X0377142Y0302099D01*
X0377232Y0302245D01*
X0377326Y0302389D01*
X0377423Y0302531D01*
X0377524Y0302670D01*
X0377628Y0302807D01*
X0377735Y0302941D01*
X0377846Y0303072D01*
X0377959Y0303201D01*
X0378076Y0303327D01*
X0378196Y0303450D01*
X0378319Y0303570D01*
X0378445Y0303687D01*
X0378574Y0303800D01*
X0378705Y0303911D01*
X0378839Y0304018D01*
X0378976Y0304122D01*
X0379115Y0304223D01*
X0379257Y0304320D01*
X0379401Y0304414D01*
X0379547Y0304504D01*
X0379696Y0304591D01*
X0379846Y0304673D01*
X0379999Y0304753D01*
X0380153Y0304828D01*
X0380309Y0304899D01*
X0380467Y0304967D01*
X0380627Y0305031D01*
X0380788Y0305091D01*
X0380950Y0305147D01*
X0381114Y0305199D01*
X0381279Y0305246D01*
X0381445Y0305290D01*
X0381612Y0305330D01*
X0381780Y0305365D01*
X0381949Y0305397D01*
X0382119Y0305424D01*
X0382289Y0305447D01*
X0382460Y0305466D01*
X0382631Y0305481D01*
X0382803Y0305492D01*
X0382974Y0305498D01*
X0383146Y0305500D01*
X0383318Y0305498D01*
X0383489Y0305492D01*
X0383661Y0305481D01*
X0383832Y0305466D01*
X0384003Y0305447D01*
X0384173Y0305424D01*
X0384343Y0305397D01*
X0384512Y0305365D01*
X0384680Y0305330D01*
X0384847Y0305290D01*
X0385013Y0305246D01*
X0385178Y0305199D01*
X0385342Y0305147D01*
X0385504Y0305091D01*
X0385665Y0305031D01*
X0385825Y0304967D01*
X0385983Y0304899D01*
X0386139Y0304828D01*
X0386293Y0304753D01*
X0386446Y0304673D01*
X0386596Y0304591D01*
X0386745Y0304504D01*
X0386891Y0304414D01*
X0387035Y0304320D01*
X0387177Y0304223D01*
X0387316Y0304122D01*
X0387453Y0304018D01*
X0387587Y0303911D01*
X0387718Y0303800D01*
X0387847Y0303687D01*
X0387973Y0303570D01*
X0388096Y0303450D01*
X0388216Y0303327D01*
X0388333Y0303201D01*
X0388446Y0303072D01*
X0388557Y0302941D01*
X0388664Y0302807D01*
X0388768Y0302670D01*
X0388869Y0302531D01*
X0388966Y0302389D01*
X0389060Y0302245D01*
X0389150Y0302099D01*
X0389237Y0301950D01*
X0389319Y0301800D01*
X0389399Y0301647D01*
X0389474Y0301493D01*
X0389545Y0301337D01*
X0389613Y0301179D01*
X0389677Y0301019D01*
X0389737Y0300858D01*
X0389793Y0300696D01*
X0389845Y0300532D01*
X0389892Y0300367D01*
X0389936Y0300201D01*
X0389976Y0300034D01*
X0390011Y0299866D01*
X0390043Y0299697D01*
X0390070Y0299527D01*
X0390093Y0299357D01*
X0390112Y0299186D01*
X0390127Y0299015D01*
X0390138Y0298843D01*
X0390144Y0298672D01*
X0390146Y0298500D01*
X0390144Y0298328D01*
X0390138Y0298157D01*
X0390127Y0297985D01*
X0390112Y0297814D01*
X0390093Y0297643D01*
X0390070Y0297473D01*
X0390043Y0297303D01*
X0390011Y0297134D01*
X0389976Y0296966D01*
X0389936Y0296799D01*
X0389892Y0296633D01*
X0389845Y0296468D01*
X0389793Y0296304D01*
X0389737Y0296142D01*
X0389677Y0295981D01*
X0389613Y0295821D01*
X0389545Y0295663D01*
X0389474Y0295507D01*
X0389399Y0295353D01*
X0389319Y0295200D01*
X0389237Y0295050D01*
X0389150Y0294901D01*
X0389060Y0294755D01*
X0388966Y0294611D01*
X0388869Y0294469D01*
X0388768Y0294330D01*
X0388664Y0294193D01*
X0388557Y0294059D01*
X0388446Y0293928D01*
X0388333Y0293799D01*
X0388216Y0293673D01*
X0388096Y0293550D01*
X0387973Y0293430D01*
X0387847Y0293313D01*
X0387718Y0293200D01*
X0387587Y0293089D01*
X0387453Y0292982D01*
X0387316Y0292878D01*
X0387177Y0292777D01*
X0387035Y0292680D01*
X0386891Y0292586D01*
X0386745Y0292496D01*
X0386596Y0292409D01*
X0386446Y0292327D01*
X0386293Y0292247D01*
X0386139Y0292172D01*
X0385983Y0292101D01*
X0385825Y0292033D01*
X0385665Y0291969D01*
X0385504Y0291909D01*
X0385342Y0291853D01*
X0385178Y0291801D01*
X0385013Y0291754D01*
X0384847Y0291710D01*
X0384680Y0291670D01*
X0384512Y0291635D01*
X0384343Y0291603D01*
X0384173Y0291576D01*
X0384003Y0291553D01*
X0383832Y0291534D01*
X0383661Y0291519D01*
X0383489Y0291508D01*
X0383318Y0291502D01*
X0383146Y0291500D01*
X0382974Y0291502D01*
X0382803Y0291508D01*
X0382631Y0291519D01*
X0382460Y0291534D01*
X0382289Y0291553D01*
X0382119Y0291576D01*
X0381949Y0291603D01*
X0381780Y0291635D01*
X0381612Y0291670D01*
X0381445Y0291710D01*
X0381279Y0291754D01*
X0381114Y0291801D01*
X0380950Y0291853D01*
X0380788Y0291909D01*
X0380627Y0291969D01*
X0380467Y0292033D01*
X0380309Y0292101D01*
X0380153Y0292172D01*
X0379999Y0292247D01*
X0379846Y0292327D01*
X0379696Y0292409D01*
X0379547Y0292496D01*
X0379401Y0292586D01*
X0379257Y0292680D01*
X0379115Y0292777D01*
X0378976Y0292878D01*
X0378839Y0292982D01*
X0378705Y0293089D01*
X0378574Y0293200D01*
X0378445Y0293313D01*
X0378319Y0293430D01*
X0378196Y0293550D01*
X0378076Y0293673D01*
X0377959Y0293799D01*
X0377846Y0293928D01*
X0377735Y0294059D01*
X0377628Y0294193D01*
X0377524Y0294330D01*
X0377423Y0294469D01*
X0377326Y0294611D01*
X0377232Y0294755D01*
X0377142Y0294901D01*
X0377055Y0295050D01*
X0376973Y0295200D01*
X0376893Y0295353D01*
X0376818Y0295507D01*
X0376747Y0295663D01*
X0376679Y0295821D01*
X0376615Y0295981D01*
X0376555Y0296142D01*
X0376499Y0296304D01*
X0376447Y0296468D01*
X0376400Y0296633D01*
X0376356Y0296799D01*
X0376316Y0296966D01*
X0376281Y0297134D01*
X0376249Y0297303D01*
X0376222Y0297473D01*
X0376199Y0297643D01*
X0376180Y0297814D01*
X0376165Y0297985D01*
X0376154Y0298157D01*
X0376148Y0298328D01*
X0376146Y0298500D01*
X0422327Y0335839D02*
X0422327Y0343886D01*
X0425827Y0351839D02*
X0442827Y0351839D01*
X0446327Y0343768D02*
X0446327Y0335839D01*
X0442827Y0327839D02*
X0425827Y0327839D01*
X0427327Y0339839D02*
X0427329Y0340011D01*
X0427335Y0340182D01*
X0427346Y0340354D01*
X0427361Y0340525D01*
X0427380Y0340696D01*
X0427403Y0340866D01*
X0427430Y0341036D01*
X0427462Y0341205D01*
X0427497Y0341373D01*
X0427537Y0341540D01*
X0427581Y0341706D01*
X0427628Y0341871D01*
X0427680Y0342035D01*
X0427736Y0342197D01*
X0427796Y0342358D01*
X0427860Y0342518D01*
X0427928Y0342676D01*
X0427999Y0342832D01*
X0428074Y0342986D01*
X0428154Y0343139D01*
X0428236Y0343289D01*
X0428323Y0343438D01*
X0428413Y0343584D01*
X0428507Y0343728D01*
X0428604Y0343870D01*
X0428705Y0344009D01*
X0428809Y0344146D01*
X0428916Y0344280D01*
X0429027Y0344411D01*
X0429140Y0344540D01*
X0429257Y0344666D01*
X0429377Y0344789D01*
X0429500Y0344909D01*
X0429626Y0345026D01*
X0429755Y0345139D01*
X0429886Y0345250D01*
X0430020Y0345357D01*
X0430157Y0345461D01*
X0430296Y0345562D01*
X0430438Y0345659D01*
X0430582Y0345753D01*
X0430728Y0345843D01*
X0430877Y0345930D01*
X0431027Y0346012D01*
X0431180Y0346092D01*
X0431334Y0346167D01*
X0431490Y0346238D01*
X0431648Y0346306D01*
X0431808Y0346370D01*
X0431969Y0346430D01*
X0432131Y0346486D01*
X0432295Y0346538D01*
X0432460Y0346585D01*
X0432626Y0346629D01*
X0432793Y0346669D01*
X0432961Y0346704D01*
X0433130Y0346736D01*
X0433300Y0346763D01*
X0433470Y0346786D01*
X0433641Y0346805D01*
X0433812Y0346820D01*
X0433984Y0346831D01*
X0434155Y0346837D01*
X0434327Y0346839D01*
X0434499Y0346837D01*
X0434670Y0346831D01*
X0434842Y0346820D01*
X0435013Y0346805D01*
X0435184Y0346786D01*
X0435354Y0346763D01*
X0435524Y0346736D01*
X0435693Y0346704D01*
X0435861Y0346669D01*
X0436028Y0346629D01*
X0436194Y0346585D01*
X0436359Y0346538D01*
X0436523Y0346486D01*
X0436685Y0346430D01*
X0436846Y0346370D01*
X0437006Y0346306D01*
X0437164Y0346238D01*
X0437320Y0346167D01*
X0437474Y0346092D01*
X0437627Y0346012D01*
X0437777Y0345930D01*
X0437926Y0345843D01*
X0438072Y0345753D01*
X0438216Y0345659D01*
X0438358Y0345562D01*
X0438497Y0345461D01*
X0438634Y0345357D01*
X0438768Y0345250D01*
X0438899Y0345139D01*
X0439028Y0345026D01*
X0439154Y0344909D01*
X0439277Y0344789D01*
X0439397Y0344666D01*
X0439514Y0344540D01*
X0439627Y0344411D01*
X0439738Y0344280D01*
X0439845Y0344146D01*
X0439949Y0344009D01*
X0440050Y0343870D01*
X0440147Y0343728D01*
X0440241Y0343584D01*
X0440331Y0343438D01*
X0440418Y0343289D01*
X0440500Y0343139D01*
X0440580Y0342986D01*
X0440655Y0342832D01*
X0440726Y0342676D01*
X0440794Y0342518D01*
X0440858Y0342358D01*
X0440918Y0342197D01*
X0440974Y0342035D01*
X0441026Y0341871D01*
X0441073Y0341706D01*
X0441117Y0341540D01*
X0441157Y0341373D01*
X0441192Y0341205D01*
X0441224Y0341036D01*
X0441251Y0340866D01*
X0441274Y0340696D01*
X0441293Y0340525D01*
X0441308Y0340354D01*
X0441319Y0340182D01*
X0441325Y0340011D01*
X0441327Y0339839D01*
X0441325Y0339667D01*
X0441319Y0339496D01*
X0441308Y0339324D01*
X0441293Y0339153D01*
X0441274Y0338982D01*
X0441251Y0338812D01*
X0441224Y0338642D01*
X0441192Y0338473D01*
X0441157Y0338305D01*
X0441117Y0338138D01*
X0441073Y0337972D01*
X0441026Y0337807D01*
X0440974Y0337643D01*
X0440918Y0337481D01*
X0440858Y0337320D01*
X0440794Y0337160D01*
X0440726Y0337002D01*
X0440655Y0336846D01*
X0440580Y0336692D01*
X0440500Y0336539D01*
X0440418Y0336389D01*
X0440331Y0336240D01*
X0440241Y0336094D01*
X0440147Y0335950D01*
X0440050Y0335808D01*
X0439949Y0335669D01*
X0439845Y0335532D01*
X0439738Y0335398D01*
X0439627Y0335267D01*
X0439514Y0335138D01*
X0439397Y0335012D01*
X0439277Y0334889D01*
X0439154Y0334769D01*
X0439028Y0334652D01*
X0438899Y0334539D01*
X0438768Y0334428D01*
X0438634Y0334321D01*
X0438497Y0334217D01*
X0438358Y0334116D01*
X0438216Y0334019D01*
X0438072Y0333925D01*
X0437926Y0333835D01*
X0437777Y0333748D01*
X0437627Y0333666D01*
X0437474Y0333586D01*
X0437320Y0333511D01*
X0437164Y0333440D01*
X0437006Y0333372D01*
X0436846Y0333308D01*
X0436685Y0333248D01*
X0436523Y0333192D01*
X0436359Y0333140D01*
X0436194Y0333093D01*
X0436028Y0333049D01*
X0435861Y0333009D01*
X0435693Y0332974D01*
X0435524Y0332942D01*
X0435354Y0332915D01*
X0435184Y0332892D01*
X0435013Y0332873D01*
X0434842Y0332858D01*
X0434670Y0332847D01*
X0434499Y0332841D01*
X0434327Y0332839D01*
X0434155Y0332841D01*
X0433984Y0332847D01*
X0433812Y0332858D01*
X0433641Y0332873D01*
X0433470Y0332892D01*
X0433300Y0332915D01*
X0433130Y0332942D01*
X0432961Y0332974D01*
X0432793Y0333009D01*
X0432626Y0333049D01*
X0432460Y0333093D01*
X0432295Y0333140D01*
X0432131Y0333192D01*
X0431969Y0333248D01*
X0431808Y0333308D01*
X0431648Y0333372D01*
X0431490Y0333440D01*
X0431334Y0333511D01*
X0431180Y0333586D01*
X0431027Y0333666D01*
X0430877Y0333748D01*
X0430728Y0333835D01*
X0430582Y0333925D01*
X0430438Y0334019D01*
X0430296Y0334116D01*
X0430157Y0334217D01*
X0430020Y0334321D01*
X0429886Y0334428D01*
X0429755Y0334539D01*
X0429626Y0334652D01*
X0429500Y0334769D01*
X0429377Y0334889D01*
X0429257Y0335012D01*
X0429140Y0335138D01*
X0429027Y0335267D01*
X0428916Y0335398D01*
X0428809Y0335532D01*
X0428705Y0335669D01*
X0428604Y0335808D01*
X0428507Y0335950D01*
X0428413Y0336094D01*
X0428323Y0336240D01*
X0428236Y0336389D01*
X0428154Y0336539D01*
X0428074Y0336692D01*
X0427999Y0336846D01*
X0427928Y0337002D01*
X0427860Y0337160D01*
X0427796Y0337320D01*
X0427736Y0337481D01*
X0427680Y0337643D01*
X0427628Y0337807D01*
X0427581Y0337972D01*
X0427537Y0338138D01*
X0427497Y0338305D01*
X0427462Y0338473D01*
X0427430Y0338642D01*
X0427403Y0338812D01*
X0427380Y0338982D01*
X0427361Y0339153D01*
X0427346Y0339324D01*
X0427335Y0339496D01*
X0427329Y0339667D01*
X0427327Y0339839D01*
X0422516Y0370835D02*
X0438264Y0370835D01*
X0445260Y0375272D02*
X0445260Y0387583D01*
X0415520Y0387583D01*
X0415520Y0375272D01*
X0363650Y0373295D02*
X0363650Y0365366D01*
X0360150Y0357366D02*
X0343150Y0357366D01*
X0339650Y0365366D02*
X0339650Y0373413D01*
X0343150Y0381366D02*
X0360150Y0381366D01*
X0344650Y0369366D02*
X0344652Y0369538D01*
X0344658Y0369709D01*
X0344669Y0369881D01*
X0344684Y0370052D01*
X0344703Y0370223D01*
X0344726Y0370393D01*
X0344753Y0370563D01*
X0344785Y0370732D01*
X0344820Y0370900D01*
X0344860Y0371067D01*
X0344904Y0371233D01*
X0344951Y0371398D01*
X0345003Y0371562D01*
X0345059Y0371724D01*
X0345119Y0371885D01*
X0345183Y0372045D01*
X0345251Y0372203D01*
X0345322Y0372359D01*
X0345397Y0372513D01*
X0345477Y0372666D01*
X0345559Y0372816D01*
X0345646Y0372965D01*
X0345736Y0373111D01*
X0345830Y0373255D01*
X0345927Y0373397D01*
X0346028Y0373536D01*
X0346132Y0373673D01*
X0346239Y0373807D01*
X0346350Y0373938D01*
X0346463Y0374067D01*
X0346580Y0374193D01*
X0346700Y0374316D01*
X0346823Y0374436D01*
X0346949Y0374553D01*
X0347078Y0374666D01*
X0347209Y0374777D01*
X0347343Y0374884D01*
X0347480Y0374988D01*
X0347619Y0375089D01*
X0347761Y0375186D01*
X0347905Y0375280D01*
X0348051Y0375370D01*
X0348200Y0375457D01*
X0348350Y0375539D01*
X0348503Y0375619D01*
X0348657Y0375694D01*
X0348813Y0375765D01*
X0348971Y0375833D01*
X0349131Y0375897D01*
X0349292Y0375957D01*
X0349454Y0376013D01*
X0349618Y0376065D01*
X0349783Y0376112D01*
X0349949Y0376156D01*
X0350116Y0376196D01*
X0350284Y0376231D01*
X0350453Y0376263D01*
X0350623Y0376290D01*
X0350793Y0376313D01*
X0350964Y0376332D01*
X0351135Y0376347D01*
X0351307Y0376358D01*
X0351478Y0376364D01*
X0351650Y0376366D01*
X0351822Y0376364D01*
X0351993Y0376358D01*
X0352165Y0376347D01*
X0352336Y0376332D01*
X0352507Y0376313D01*
X0352677Y0376290D01*
X0352847Y0376263D01*
X0353016Y0376231D01*
X0353184Y0376196D01*
X0353351Y0376156D01*
X0353517Y0376112D01*
X0353682Y0376065D01*
X0353846Y0376013D01*
X0354008Y0375957D01*
X0354169Y0375897D01*
X0354329Y0375833D01*
X0354487Y0375765D01*
X0354643Y0375694D01*
X0354797Y0375619D01*
X0354950Y0375539D01*
X0355100Y0375457D01*
X0355249Y0375370D01*
X0355395Y0375280D01*
X0355539Y0375186D01*
X0355681Y0375089D01*
X0355820Y0374988D01*
X0355957Y0374884D01*
X0356091Y0374777D01*
X0356222Y0374666D01*
X0356351Y0374553D01*
X0356477Y0374436D01*
X0356600Y0374316D01*
X0356720Y0374193D01*
X0356837Y0374067D01*
X0356950Y0373938D01*
X0357061Y0373807D01*
X0357168Y0373673D01*
X0357272Y0373536D01*
X0357373Y0373397D01*
X0357470Y0373255D01*
X0357564Y0373111D01*
X0357654Y0372965D01*
X0357741Y0372816D01*
X0357823Y0372666D01*
X0357903Y0372513D01*
X0357978Y0372359D01*
X0358049Y0372203D01*
X0358117Y0372045D01*
X0358181Y0371885D01*
X0358241Y0371724D01*
X0358297Y0371562D01*
X0358349Y0371398D01*
X0358396Y0371233D01*
X0358440Y0371067D01*
X0358480Y0370900D01*
X0358515Y0370732D01*
X0358547Y0370563D01*
X0358574Y0370393D01*
X0358597Y0370223D01*
X0358616Y0370052D01*
X0358631Y0369881D01*
X0358642Y0369709D01*
X0358648Y0369538D01*
X0358650Y0369366D01*
X0358648Y0369194D01*
X0358642Y0369023D01*
X0358631Y0368851D01*
X0358616Y0368680D01*
X0358597Y0368509D01*
X0358574Y0368339D01*
X0358547Y0368169D01*
X0358515Y0368000D01*
X0358480Y0367832D01*
X0358440Y0367665D01*
X0358396Y0367499D01*
X0358349Y0367334D01*
X0358297Y0367170D01*
X0358241Y0367008D01*
X0358181Y0366847D01*
X0358117Y0366687D01*
X0358049Y0366529D01*
X0357978Y0366373D01*
X0357903Y0366219D01*
X0357823Y0366066D01*
X0357741Y0365916D01*
X0357654Y0365767D01*
X0357564Y0365621D01*
X0357470Y0365477D01*
X0357373Y0365335D01*
X0357272Y0365196D01*
X0357168Y0365059D01*
X0357061Y0364925D01*
X0356950Y0364794D01*
X0356837Y0364665D01*
X0356720Y0364539D01*
X0356600Y0364416D01*
X0356477Y0364296D01*
X0356351Y0364179D01*
X0356222Y0364066D01*
X0356091Y0363955D01*
X0355957Y0363848D01*
X0355820Y0363744D01*
X0355681Y0363643D01*
X0355539Y0363546D01*
X0355395Y0363452D01*
X0355249Y0363362D01*
X0355100Y0363275D01*
X0354950Y0363193D01*
X0354797Y0363113D01*
X0354643Y0363038D01*
X0354487Y0362967D01*
X0354329Y0362899D01*
X0354169Y0362835D01*
X0354008Y0362775D01*
X0353846Y0362719D01*
X0353682Y0362667D01*
X0353517Y0362620D01*
X0353351Y0362576D01*
X0353184Y0362536D01*
X0353016Y0362501D01*
X0352847Y0362469D01*
X0352677Y0362442D01*
X0352507Y0362419D01*
X0352336Y0362400D01*
X0352165Y0362385D01*
X0351993Y0362374D01*
X0351822Y0362368D01*
X0351650Y0362366D01*
X0351478Y0362368D01*
X0351307Y0362374D01*
X0351135Y0362385D01*
X0350964Y0362400D01*
X0350793Y0362419D01*
X0350623Y0362442D01*
X0350453Y0362469D01*
X0350284Y0362501D01*
X0350116Y0362536D01*
X0349949Y0362576D01*
X0349783Y0362620D01*
X0349618Y0362667D01*
X0349454Y0362719D01*
X0349292Y0362775D01*
X0349131Y0362835D01*
X0348971Y0362899D01*
X0348813Y0362967D01*
X0348657Y0363038D01*
X0348503Y0363113D01*
X0348350Y0363193D01*
X0348200Y0363275D01*
X0348051Y0363362D01*
X0347905Y0363452D01*
X0347761Y0363546D01*
X0347619Y0363643D01*
X0347480Y0363744D01*
X0347343Y0363848D01*
X0347209Y0363955D01*
X0347078Y0364066D01*
X0346949Y0364179D01*
X0346823Y0364296D01*
X0346700Y0364416D01*
X0346580Y0364539D01*
X0346463Y0364665D01*
X0346350Y0364794D01*
X0346239Y0364925D01*
X0346132Y0365059D01*
X0346028Y0365196D01*
X0345927Y0365335D01*
X0345830Y0365477D01*
X0345736Y0365621D01*
X0345646Y0365767D01*
X0345559Y0365916D01*
X0345477Y0366066D01*
X0345397Y0366219D01*
X0345322Y0366373D01*
X0345251Y0366529D01*
X0345183Y0366687D01*
X0345119Y0366847D01*
X0345059Y0367008D01*
X0345003Y0367170D01*
X0344951Y0367334D01*
X0344904Y0367499D01*
X0344860Y0367665D01*
X0344820Y0367832D01*
X0344785Y0368000D01*
X0344753Y0368169D01*
X0344726Y0368339D01*
X0344703Y0368509D01*
X0344684Y0368680D01*
X0344669Y0368851D01*
X0344658Y0369023D01*
X0344652Y0369194D01*
X0344650Y0369366D01*
X0473508Y0302547D02*
X0473508Y0294500D01*
X0477008Y0286500D02*
X0494008Y0286500D01*
X0497508Y0294500D02*
X0497508Y0302429D01*
X0494008Y0310500D02*
X0477008Y0310500D01*
X0478508Y0298500D02*
X0478510Y0298672D01*
X0478516Y0298843D01*
X0478527Y0299015D01*
X0478542Y0299186D01*
X0478561Y0299357D01*
X0478584Y0299527D01*
X0478611Y0299697D01*
X0478643Y0299866D01*
X0478678Y0300034D01*
X0478718Y0300201D01*
X0478762Y0300367D01*
X0478809Y0300532D01*
X0478861Y0300696D01*
X0478917Y0300858D01*
X0478977Y0301019D01*
X0479041Y0301179D01*
X0479109Y0301337D01*
X0479180Y0301493D01*
X0479255Y0301647D01*
X0479335Y0301800D01*
X0479417Y0301950D01*
X0479504Y0302099D01*
X0479594Y0302245D01*
X0479688Y0302389D01*
X0479785Y0302531D01*
X0479886Y0302670D01*
X0479990Y0302807D01*
X0480097Y0302941D01*
X0480208Y0303072D01*
X0480321Y0303201D01*
X0480438Y0303327D01*
X0480558Y0303450D01*
X0480681Y0303570D01*
X0480807Y0303687D01*
X0480936Y0303800D01*
X0481067Y0303911D01*
X0481201Y0304018D01*
X0481338Y0304122D01*
X0481477Y0304223D01*
X0481619Y0304320D01*
X0481763Y0304414D01*
X0481909Y0304504D01*
X0482058Y0304591D01*
X0482208Y0304673D01*
X0482361Y0304753D01*
X0482515Y0304828D01*
X0482671Y0304899D01*
X0482829Y0304967D01*
X0482989Y0305031D01*
X0483150Y0305091D01*
X0483312Y0305147D01*
X0483476Y0305199D01*
X0483641Y0305246D01*
X0483807Y0305290D01*
X0483974Y0305330D01*
X0484142Y0305365D01*
X0484311Y0305397D01*
X0484481Y0305424D01*
X0484651Y0305447D01*
X0484822Y0305466D01*
X0484993Y0305481D01*
X0485165Y0305492D01*
X0485336Y0305498D01*
X0485508Y0305500D01*
X0485680Y0305498D01*
X0485851Y0305492D01*
X0486023Y0305481D01*
X0486194Y0305466D01*
X0486365Y0305447D01*
X0486535Y0305424D01*
X0486705Y0305397D01*
X0486874Y0305365D01*
X0487042Y0305330D01*
X0487209Y0305290D01*
X0487375Y0305246D01*
X0487540Y0305199D01*
X0487704Y0305147D01*
X0487866Y0305091D01*
X0488027Y0305031D01*
X0488187Y0304967D01*
X0488345Y0304899D01*
X0488501Y0304828D01*
X0488655Y0304753D01*
X0488808Y0304673D01*
X0488958Y0304591D01*
X0489107Y0304504D01*
X0489253Y0304414D01*
X0489397Y0304320D01*
X0489539Y0304223D01*
X0489678Y0304122D01*
X0489815Y0304018D01*
X0489949Y0303911D01*
X0490080Y0303800D01*
X0490209Y0303687D01*
X0490335Y0303570D01*
X0490458Y0303450D01*
X0490578Y0303327D01*
X0490695Y0303201D01*
X0490808Y0303072D01*
X0490919Y0302941D01*
X0491026Y0302807D01*
X0491130Y0302670D01*
X0491231Y0302531D01*
X0491328Y0302389D01*
X0491422Y0302245D01*
X0491512Y0302099D01*
X0491599Y0301950D01*
X0491681Y0301800D01*
X0491761Y0301647D01*
X0491836Y0301493D01*
X0491907Y0301337D01*
X0491975Y0301179D01*
X0492039Y0301019D01*
X0492099Y0300858D01*
X0492155Y0300696D01*
X0492207Y0300532D01*
X0492254Y0300367D01*
X0492298Y0300201D01*
X0492338Y0300034D01*
X0492373Y0299866D01*
X0492405Y0299697D01*
X0492432Y0299527D01*
X0492455Y0299357D01*
X0492474Y0299186D01*
X0492489Y0299015D01*
X0492500Y0298843D01*
X0492506Y0298672D01*
X0492508Y0298500D01*
X0492506Y0298328D01*
X0492500Y0298157D01*
X0492489Y0297985D01*
X0492474Y0297814D01*
X0492455Y0297643D01*
X0492432Y0297473D01*
X0492405Y0297303D01*
X0492373Y0297134D01*
X0492338Y0296966D01*
X0492298Y0296799D01*
X0492254Y0296633D01*
X0492207Y0296468D01*
X0492155Y0296304D01*
X0492099Y0296142D01*
X0492039Y0295981D01*
X0491975Y0295821D01*
X0491907Y0295663D01*
X0491836Y0295507D01*
X0491761Y0295353D01*
X0491681Y0295200D01*
X0491599Y0295050D01*
X0491512Y0294901D01*
X0491422Y0294755D01*
X0491328Y0294611D01*
X0491231Y0294469D01*
X0491130Y0294330D01*
X0491026Y0294193D01*
X0490919Y0294059D01*
X0490808Y0293928D01*
X0490695Y0293799D01*
X0490578Y0293673D01*
X0490458Y0293550D01*
X0490335Y0293430D01*
X0490209Y0293313D01*
X0490080Y0293200D01*
X0489949Y0293089D01*
X0489815Y0292982D01*
X0489678Y0292878D01*
X0489539Y0292777D01*
X0489397Y0292680D01*
X0489253Y0292586D01*
X0489107Y0292496D01*
X0488958Y0292409D01*
X0488808Y0292327D01*
X0488655Y0292247D01*
X0488501Y0292172D01*
X0488345Y0292101D01*
X0488187Y0292033D01*
X0488027Y0291969D01*
X0487866Y0291909D01*
X0487704Y0291853D01*
X0487540Y0291801D01*
X0487375Y0291754D01*
X0487209Y0291710D01*
X0487042Y0291670D01*
X0486874Y0291635D01*
X0486705Y0291603D01*
X0486535Y0291576D01*
X0486365Y0291553D01*
X0486194Y0291534D01*
X0486023Y0291519D01*
X0485851Y0291508D01*
X0485680Y0291502D01*
X0485508Y0291500D01*
X0485336Y0291502D01*
X0485165Y0291508D01*
X0484993Y0291519D01*
X0484822Y0291534D01*
X0484651Y0291553D01*
X0484481Y0291576D01*
X0484311Y0291603D01*
X0484142Y0291635D01*
X0483974Y0291670D01*
X0483807Y0291710D01*
X0483641Y0291754D01*
X0483476Y0291801D01*
X0483312Y0291853D01*
X0483150Y0291909D01*
X0482989Y0291969D01*
X0482829Y0292033D01*
X0482671Y0292101D01*
X0482515Y0292172D01*
X0482361Y0292247D01*
X0482208Y0292327D01*
X0482058Y0292409D01*
X0481909Y0292496D01*
X0481763Y0292586D01*
X0481619Y0292680D01*
X0481477Y0292777D01*
X0481338Y0292878D01*
X0481201Y0292982D01*
X0481067Y0293089D01*
X0480936Y0293200D01*
X0480807Y0293313D01*
X0480681Y0293430D01*
X0480558Y0293550D01*
X0480438Y0293673D01*
X0480321Y0293799D01*
X0480208Y0293928D01*
X0480097Y0294059D01*
X0479990Y0294193D01*
X0479886Y0294330D01*
X0479785Y0294469D01*
X0479688Y0294611D01*
X0479594Y0294755D01*
X0479504Y0294901D01*
X0479417Y0295050D01*
X0479335Y0295200D01*
X0479255Y0295353D01*
X0479180Y0295507D01*
X0479109Y0295663D01*
X0479041Y0295821D01*
X0478977Y0295981D01*
X0478917Y0296142D01*
X0478861Y0296304D01*
X0478809Y0296468D01*
X0478762Y0296633D01*
X0478718Y0296799D01*
X0478678Y0296966D01*
X0478643Y0297134D01*
X0478611Y0297303D01*
X0478584Y0297473D01*
X0478561Y0297643D01*
X0478542Y0297814D01*
X0478527Y0297985D01*
X0478516Y0298157D01*
X0478510Y0298328D01*
X0478508Y0298500D01*
D11*
X0484992Y0312172D02*
X0484990Y0312212D01*
X0484984Y0312253D01*
X0484975Y0312292D01*
X0484962Y0312330D01*
X0484945Y0312367D01*
X0484925Y0312402D01*
X0484902Y0312435D01*
X0484875Y0312466D01*
X0484846Y0312494D01*
X0484815Y0312519D01*
X0484781Y0312542D01*
X0484200Y0312858D01*
X0484411Y0313650D02*
X0484462Y0313648D01*
X0484513Y0313643D01*
X0484563Y0313635D01*
X0484613Y0313624D01*
X0484661Y0313609D01*
X0484709Y0313592D01*
X0484756Y0313571D01*
X0484801Y0313547D01*
X0484844Y0313521D01*
X0484886Y0313492D01*
X0484200Y0312858D02*
X0484166Y0312881D01*
X0484135Y0312906D01*
X0484106Y0312934D01*
X0484079Y0312965D01*
X0484056Y0312998D01*
X0484036Y0313033D01*
X0484019Y0313070D01*
X0484006Y0313108D01*
X0483997Y0313147D01*
X0483991Y0313188D01*
X0483989Y0313228D01*
X0483991Y0313267D01*
X0483996Y0313306D01*
X0484005Y0313343D01*
X0484017Y0313380D01*
X0484033Y0313416D01*
X0484052Y0313450D01*
X0484074Y0313482D01*
X0484099Y0313512D01*
X0484127Y0313540D01*
X0484157Y0313565D01*
X0484189Y0313587D01*
X0484223Y0313606D01*
X0484259Y0313622D01*
X0484296Y0313634D01*
X0484333Y0313643D01*
X0484372Y0313648D01*
X0484411Y0313650D01*
X0483936Y0312014D02*
X0483978Y0311974D01*
X0484024Y0311936D01*
X0484071Y0311902D01*
X0484121Y0311871D01*
X0484173Y0311843D01*
X0484226Y0311819D01*
X0484281Y0311798D01*
X0484337Y0311781D01*
X0484394Y0311767D01*
X0484452Y0311758D01*
X0484510Y0311752D01*
X0484569Y0311750D01*
X0484608Y0311752D01*
X0484647Y0311757D01*
X0484684Y0311766D01*
X0484721Y0311778D01*
X0484757Y0311794D01*
X0484791Y0311813D01*
X0484823Y0311835D01*
X0484853Y0311860D01*
X0484881Y0311888D01*
X0484906Y0311918D01*
X0484928Y0311950D01*
X0484947Y0311984D01*
X0484963Y0312020D01*
X0484975Y0312057D01*
X0484984Y0312094D01*
X0484989Y0312133D01*
X0484991Y0312172D01*
X0486024Y0311750D02*
X0486552Y0311750D01*
X0486597Y0311752D01*
X0486641Y0311758D01*
X0486685Y0311767D01*
X0486728Y0311780D01*
X0486769Y0311797D01*
X0486810Y0311817D01*
X0486848Y0311841D01*
X0486884Y0311867D01*
X0486917Y0311897D01*
X0486948Y0311929D01*
X0486977Y0311964D01*
X0487002Y0312001D01*
X0487023Y0312040D01*
X0487042Y0312081D01*
X0487057Y0312123D01*
X0487068Y0312167D01*
X0487076Y0312211D01*
X0487080Y0312256D01*
X0487080Y0312300D01*
X0487076Y0312345D01*
X0487068Y0312389D01*
X0487057Y0312433D01*
X0487042Y0312475D01*
X0487023Y0312516D01*
X0487002Y0312555D01*
X0486977Y0312592D01*
X0486948Y0312627D01*
X0486917Y0312659D01*
X0486884Y0312689D01*
X0486848Y0312715D01*
X0486810Y0312739D01*
X0486769Y0312759D01*
X0486728Y0312776D01*
X0486685Y0312789D01*
X0486641Y0312798D01*
X0486597Y0312804D01*
X0486552Y0312806D01*
X0486657Y0312806D02*
X0486235Y0312806D01*
X0486657Y0312806D02*
X0486697Y0312808D01*
X0486737Y0312814D01*
X0486776Y0312823D01*
X0486814Y0312836D01*
X0486850Y0312853D01*
X0486885Y0312873D01*
X0486918Y0312896D01*
X0486948Y0312923D01*
X0486976Y0312952D01*
X0487001Y0312983D01*
X0487022Y0313017D01*
X0487041Y0313053D01*
X0487056Y0313090D01*
X0487067Y0313129D01*
X0487075Y0313168D01*
X0487079Y0313208D01*
X0487079Y0313248D01*
X0487075Y0313288D01*
X0487067Y0313327D01*
X0487056Y0313366D01*
X0487041Y0313403D01*
X0487022Y0313439D01*
X0487001Y0313473D01*
X0486976Y0313504D01*
X0486948Y0313533D01*
X0486918Y0313560D01*
X0486885Y0313583D01*
X0486850Y0313603D01*
X0486814Y0313620D01*
X0486776Y0313633D01*
X0486737Y0313642D01*
X0486697Y0313648D01*
X0486657Y0313650D01*
X0486024Y0313650D01*
X0435899Y0353933D02*
X0435899Y0354461D01*
X0435899Y0353933D02*
X0435265Y0353933D01*
X0435898Y0353933D02*
X0435896Y0353878D01*
X0435891Y0353823D01*
X0435882Y0353768D01*
X0435869Y0353715D01*
X0435853Y0353662D01*
X0435834Y0353610D01*
X0435811Y0353560D01*
X0435785Y0353511D01*
X0435756Y0353464D01*
X0435724Y0353419D01*
X0435689Y0353377D01*
X0435651Y0353336D01*
X0435610Y0353298D01*
X0435568Y0353263D01*
X0435523Y0353231D01*
X0435476Y0353202D01*
X0435427Y0353176D01*
X0435377Y0353153D01*
X0435325Y0353134D01*
X0435272Y0353118D01*
X0435219Y0353105D01*
X0435164Y0353096D01*
X0435109Y0353091D01*
X0435054Y0353089D01*
X0434843Y0354355D02*
X0434843Y0354461D01*
X0434843Y0354355D02*
X0434845Y0354316D01*
X0434850Y0354277D01*
X0434859Y0354240D01*
X0434871Y0354203D01*
X0434887Y0354167D01*
X0434906Y0354133D01*
X0434928Y0354101D01*
X0434953Y0354071D01*
X0434981Y0354043D01*
X0435011Y0354018D01*
X0435043Y0353996D01*
X0435077Y0353977D01*
X0435113Y0353961D01*
X0435150Y0353949D01*
X0435187Y0353940D01*
X0435226Y0353935D01*
X0435265Y0353933D01*
X0434843Y0354461D02*
X0434845Y0354506D01*
X0434851Y0354550D01*
X0434860Y0354594D01*
X0434873Y0354637D01*
X0434890Y0354678D01*
X0434910Y0354719D01*
X0434934Y0354757D01*
X0434960Y0354793D01*
X0434990Y0354826D01*
X0435022Y0354857D01*
X0435057Y0354886D01*
X0435094Y0354911D01*
X0435133Y0354932D01*
X0435174Y0354951D01*
X0435216Y0354966D01*
X0435260Y0354977D01*
X0435304Y0354985D01*
X0435349Y0354989D01*
X0435393Y0354989D01*
X0435438Y0354985D01*
X0435482Y0354977D01*
X0435526Y0354966D01*
X0435568Y0354951D01*
X0435609Y0354932D01*
X0435648Y0354911D01*
X0435685Y0354886D01*
X0435720Y0354857D01*
X0435752Y0354826D01*
X0435782Y0354793D01*
X0435808Y0354757D01*
X0435832Y0354719D01*
X0435852Y0354678D01*
X0435869Y0354637D01*
X0435882Y0354594D01*
X0435891Y0354550D01*
X0435897Y0354506D01*
X0435899Y0354461D01*
X0433599Y0353880D02*
X0433019Y0354197D01*
X0433230Y0354989D02*
X0433281Y0354987D01*
X0433332Y0354982D01*
X0433382Y0354974D01*
X0433432Y0354963D01*
X0433480Y0354948D01*
X0433528Y0354931D01*
X0433575Y0354910D01*
X0433620Y0354886D01*
X0433663Y0354860D01*
X0433705Y0354831D01*
X0433019Y0354196D02*
X0432985Y0354219D01*
X0432954Y0354244D01*
X0432925Y0354272D01*
X0432898Y0354303D01*
X0432875Y0354336D01*
X0432855Y0354371D01*
X0432838Y0354408D01*
X0432825Y0354446D01*
X0432816Y0354485D01*
X0432810Y0354526D01*
X0432808Y0354566D01*
X0432810Y0354605D01*
X0432815Y0354644D01*
X0432824Y0354681D01*
X0432836Y0354718D01*
X0432852Y0354754D01*
X0432871Y0354788D01*
X0432893Y0354820D01*
X0432918Y0354850D01*
X0432946Y0354878D01*
X0432976Y0354903D01*
X0433008Y0354925D01*
X0433042Y0354944D01*
X0433078Y0354960D01*
X0433115Y0354972D01*
X0433152Y0354981D01*
X0433191Y0354986D01*
X0433230Y0354988D01*
X0432755Y0353353D02*
X0432797Y0353313D01*
X0432843Y0353275D01*
X0432890Y0353241D01*
X0432940Y0353210D01*
X0432992Y0353182D01*
X0433045Y0353158D01*
X0433100Y0353137D01*
X0433156Y0353120D01*
X0433213Y0353106D01*
X0433271Y0353097D01*
X0433329Y0353091D01*
X0433388Y0353089D01*
X0433427Y0353091D01*
X0433466Y0353096D01*
X0433503Y0353105D01*
X0433540Y0353117D01*
X0433576Y0353133D01*
X0433610Y0353152D01*
X0433642Y0353174D01*
X0433672Y0353199D01*
X0433700Y0353227D01*
X0433725Y0353257D01*
X0433747Y0353289D01*
X0433766Y0353323D01*
X0433782Y0353359D01*
X0433794Y0353396D01*
X0433803Y0353433D01*
X0433808Y0353472D01*
X0433810Y0353511D01*
X0433811Y0353511D02*
X0433809Y0353551D01*
X0433803Y0353592D01*
X0433794Y0353631D01*
X0433781Y0353669D01*
X0433764Y0353706D01*
X0433744Y0353741D01*
X0433721Y0353774D01*
X0433694Y0353805D01*
X0433665Y0353833D01*
X0433634Y0353858D01*
X0433600Y0353881D01*
X0433042Y0368059D02*
X0431986Y0368059D01*
X0432514Y0368059D02*
X0432514Y0369959D01*
X0431986Y0369536D01*
X0430354Y0369959D02*
X0430354Y0368059D01*
X0429826Y0368059D02*
X0430882Y0368059D01*
X0429826Y0369536D02*
X0430354Y0369959D01*
X0428582Y0368850D02*
X0428002Y0369167D01*
X0428213Y0369959D02*
X0428264Y0369957D01*
X0428315Y0369952D01*
X0428365Y0369944D01*
X0428415Y0369933D01*
X0428463Y0369918D01*
X0428511Y0369901D01*
X0428558Y0369880D01*
X0428603Y0369856D01*
X0428646Y0369830D01*
X0428688Y0369801D01*
X0428002Y0369166D02*
X0427968Y0369189D01*
X0427937Y0369214D01*
X0427908Y0369242D01*
X0427881Y0369273D01*
X0427858Y0369306D01*
X0427838Y0369341D01*
X0427821Y0369378D01*
X0427808Y0369416D01*
X0427799Y0369455D01*
X0427793Y0369496D01*
X0427791Y0369536D01*
X0427793Y0369575D01*
X0427798Y0369614D01*
X0427807Y0369651D01*
X0427819Y0369688D01*
X0427835Y0369724D01*
X0427854Y0369758D01*
X0427876Y0369790D01*
X0427901Y0369820D01*
X0427929Y0369848D01*
X0427959Y0369873D01*
X0427991Y0369895D01*
X0428025Y0369914D01*
X0428061Y0369930D01*
X0428098Y0369942D01*
X0428135Y0369951D01*
X0428174Y0369956D01*
X0428213Y0369958D01*
X0427738Y0368323D02*
X0427780Y0368283D01*
X0427826Y0368245D01*
X0427873Y0368211D01*
X0427923Y0368180D01*
X0427975Y0368152D01*
X0428028Y0368128D01*
X0428083Y0368107D01*
X0428139Y0368090D01*
X0428196Y0368076D01*
X0428254Y0368067D01*
X0428312Y0368061D01*
X0428371Y0368059D01*
X0428410Y0368061D01*
X0428449Y0368066D01*
X0428486Y0368075D01*
X0428523Y0368087D01*
X0428559Y0368103D01*
X0428593Y0368122D01*
X0428625Y0368144D01*
X0428655Y0368169D01*
X0428683Y0368197D01*
X0428708Y0368227D01*
X0428730Y0368259D01*
X0428749Y0368293D01*
X0428765Y0368329D01*
X0428777Y0368366D01*
X0428786Y0368403D01*
X0428791Y0368442D01*
X0428793Y0368481D01*
X0428794Y0368481D02*
X0428792Y0368521D01*
X0428786Y0368562D01*
X0428777Y0368601D01*
X0428764Y0368639D01*
X0428747Y0368676D01*
X0428727Y0368711D01*
X0428704Y0368744D01*
X0428677Y0368775D01*
X0428648Y0368803D01*
X0428617Y0368828D01*
X0428583Y0368851D01*
X0384084Y0313650D02*
X0383662Y0312172D01*
X0384717Y0312172D01*
X0384401Y0312594D02*
X0384401Y0311750D01*
X0382418Y0312542D02*
X0381838Y0312858D01*
X0382049Y0313650D02*
X0382100Y0313648D01*
X0382151Y0313643D01*
X0382201Y0313635D01*
X0382251Y0313624D01*
X0382299Y0313609D01*
X0382347Y0313592D01*
X0382394Y0313571D01*
X0382439Y0313547D01*
X0382482Y0313521D01*
X0382524Y0313492D01*
X0381837Y0312858D02*
X0381803Y0312881D01*
X0381772Y0312906D01*
X0381743Y0312934D01*
X0381716Y0312965D01*
X0381693Y0312998D01*
X0381673Y0313033D01*
X0381656Y0313070D01*
X0381643Y0313108D01*
X0381634Y0313147D01*
X0381628Y0313188D01*
X0381626Y0313228D01*
X0381627Y0313228D02*
X0381629Y0313267D01*
X0381634Y0313306D01*
X0381643Y0313343D01*
X0381655Y0313380D01*
X0381671Y0313416D01*
X0381690Y0313450D01*
X0381712Y0313482D01*
X0381737Y0313512D01*
X0381765Y0313540D01*
X0381795Y0313565D01*
X0381827Y0313587D01*
X0381861Y0313606D01*
X0381897Y0313622D01*
X0381934Y0313634D01*
X0381971Y0313643D01*
X0382010Y0313648D01*
X0382049Y0313650D01*
X0381574Y0312014D02*
X0381616Y0311974D01*
X0381662Y0311936D01*
X0381709Y0311902D01*
X0381759Y0311871D01*
X0381811Y0311843D01*
X0381864Y0311819D01*
X0381919Y0311798D01*
X0381975Y0311781D01*
X0382032Y0311767D01*
X0382090Y0311758D01*
X0382148Y0311752D01*
X0382207Y0311750D01*
X0382246Y0311752D01*
X0382285Y0311757D01*
X0382322Y0311766D01*
X0382359Y0311778D01*
X0382395Y0311794D01*
X0382429Y0311813D01*
X0382461Y0311835D01*
X0382491Y0311860D01*
X0382519Y0311888D01*
X0382544Y0311918D01*
X0382566Y0311950D01*
X0382585Y0311984D01*
X0382601Y0312020D01*
X0382613Y0312057D01*
X0382622Y0312094D01*
X0382627Y0312133D01*
X0382629Y0312172D01*
X0382630Y0312172D02*
X0382628Y0312212D01*
X0382622Y0312253D01*
X0382613Y0312292D01*
X0382600Y0312330D01*
X0382583Y0312367D01*
X0382563Y0312402D01*
X0382540Y0312435D01*
X0382513Y0312466D01*
X0382484Y0312494D01*
X0382453Y0312519D01*
X0382419Y0312542D01*
X0434776Y0264015D02*
X0434778Y0264054D01*
X0434783Y0264093D01*
X0434792Y0264130D01*
X0434804Y0264167D01*
X0434820Y0264203D01*
X0434839Y0264237D01*
X0434861Y0264269D01*
X0434886Y0264299D01*
X0434914Y0264327D01*
X0434944Y0264352D01*
X0434976Y0264374D01*
X0435010Y0264393D01*
X0435046Y0264409D01*
X0435083Y0264421D01*
X0435120Y0264430D01*
X0435159Y0264435D01*
X0435198Y0264437D01*
X0434776Y0264015D02*
X0434778Y0263975D01*
X0434784Y0263934D01*
X0434793Y0263895D01*
X0434806Y0263857D01*
X0434823Y0263820D01*
X0434843Y0263785D01*
X0434866Y0263752D01*
X0434893Y0263721D01*
X0434922Y0263693D01*
X0434953Y0263668D01*
X0434987Y0263645D01*
X0434987Y0263646D02*
X0435568Y0263329D01*
X0435357Y0262537D02*
X0435298Y0262539D01*
X0435240Y0262545D01*
X0435182Y0262554D01*
X0435125Y0262568D01*
X0435069Y0262585D01*
X0435014Y0262606D01*
X0434961Y0262630D01*
X0434909Y0262658D01*
X0434859Y0262689D01*
X0434812Y0262723D01*
X0434766Y0262761D01*
X0434724Y0262801D01*
X0435568Y0263330D02*
X0435602Y0263307D01*
X0435633Y0263282D01*
X0435662Y0263254D01*
X0435689Y0263223D01*
X0435712Y0263190D01*
X0435732Y0263155D01*
X0435749Y0263118D01*
X0435762Y0263080D01*
X0435771Y0263041D01*
X0435777Y0263000D01*
X0435779Y0262960D01*
X0435777Y0262921D01*
X0435772Y0262882D01*
X0435763Y0262845D01*
X0435751Y0262808D01*
X0435735Y0262772D01*
X0435716Y0262738D01*
X0435694Y0262706D01*
X0435669Y0262676D01*
X0435641Y0262648D01*
X0435611Y0262623D01*
X0435579Y0262601D01*
X0435545Y0262582D01*
X0435509Y0262566D01*
X0435472Y0262554D01*
X0435435Y0262545D01*
X0435396Y0262540D01*
X0435357Y0262538D01*
X0435673Y0264280D02*
X0435631Y0264309D01*
X0435588Y0264335D01*
X0435543Y0264359D01*
X0435496Y0264380D01*
X0435448Y0264397D01*
X0435400Y0264412D01*
X0435350Y0264423D01*
X0435300Y0264431D01*
X0435249Y0264436D01*
X0435198Y0264438D01*
X0437709Y0263593D02*
X0437737Y0263622D01*
X0437764Y0263654D01*
X0437787Y0263688D01*
X0437808Y0263724D01*
X0437826Y0263761D01*
X0437840Y0263800D01*
X0437852Y0263839D01*
X0437860Y0263880D01*
X0437865Y0263921D01*
X0437867Y0263962D01*
X0437709Y0263593D02*
X0436811Y0262537D01*
X0437867Y0262537D01*
X0436812Y0264015D02*
X0436828Y0264060D01*
X0436848Y0264103D01*
X0436872Y0264145D01*
X0436898Y0264185D01*
X0436928Y0264223D01*
X0436960Y0264258D01*
X0436996Y0264291D01*
X0437033Y0264320D01*
X0437073Y0264347D01*
X0437115Y0264370D01*
X0437158Y0264390D01*
X0437203Y0264407D01*
X0437249Y0264420D01*
X0437297Y0264429D01*
X0437344Y0264435D01*
X0437392Y0264437D01*
X0437433Y0264435D01*
X0437474Y0264430D01*
X0437515Y0264421D01*
X0437554Y0264408D01*
X0437593Y0264392D01*
X0437630Y0264373D01*
X0437664Y0264351D01*
X0437697Y0264326D01*
X0437728Y0264298D01*
X0437756Y0264267D01*
X0437781Y0264234D01*
X0437803Y0264200D01*
X0437822Y0264163D01*
X0437838Y0264124D01*
X0437851Y0264085D01*
X0437860Y0264044D01*
X0437865Y0264003D01*
X0437867Y0263962D01*
X0349179Y0166619D02*
X0349177Y0166579D01*
X0349171Y0166539D01*
X0349162Y0166500D01*
X0349149Y0166462D01*
X0349132Y0166426D01*
X0349112Y0166391D01*
X0349089Y0166358D01*
X0349062Y0166328D01*
X0349033Y0166300D01*
X0349002Y0166275D01*
X0348968Y0166254D01*
X0348932Y0166235D01*
X0348895Y0166220D01*
X0348856Y0166209D01*
X0348817Y0166201D01*
X0348777Y0166197D01*
X0348737Y0166197D01*
X0348697Y0166201D01*
X0348658Y0166209D01*
X0348619Y0166220D01*
X0348582Y0166235D01*
X0348546Y0166254D01*
X0348512Y0166275D01*
X0348481Y0166300D01*
X0348452Y0166328D01*
X0348425Y0166358D01*
X0348402Y0166391D01*
X0348382Y0166426D01*
X0348365Y0166462D01*
X0348352Y0166500D01*
X0348343Y0166539D01*
X0348337Y0166579D01*
X0348335Y0166619D01*
X0348337Y0166659D01*
X0348343Y0166699D01*
X0348352Y0166738D01*
X0348365Y0166776D01*
X0348382Y0166812D01*
X0348402Y0166847D01*
X0348425Y0166880D01*
X0348452Y0166910D01*
X0348481Y0166938D01*
X0348512Y0166963D01*
X0348546Y0166984D01*
X0348582Y0167003D01*
X0348619Y0167018D01*
X0348658Y0167029D01*
X0348697Y0167037D01*
X0348737Y0167041D01*
X0348777Y0167041D01*
X0348817Y0167037D01*
X0348856Y0167029D01*
X0348895Y0167018D01*
X0348932Y0167003D01*
X0348968Y0166984D01*
X0349002Y0166963D01*
X0349033Y0166938D01*
X0349062Y0166910D01*
X0349089Y0166880D01*
X0349112Y0166847D01*
X0349132Y0166812D01*
X0349149Y0166776D01*
X0349162Y0166738D01*
X0349171Y0166699D01*
X0349177Y0166659D01*
X0349179Y0166619D01*
X0349285Y0165669D02*
X0349283Y0165624D01*
X0349277Y0165580D01*
X0349268Y0165536D01*
X0349255Y0165493D01*
X0349238Y0165452D01*
X0349218Y0165411D01*
X0349194Y0165373D01*
X0349168Y0165337D01*
X0349138Y0165304D01*
X0349106Y0165273D01*
X0349071Y0165244D01*
X0349034Y0165219D01*
X0348995Y0165198D01*
X0348954Y0165179D01*
X0348912Y0165164D01*
X0348868Y0165153D01*
X0348824Y0165145D01*
X0348779Y0165141D01*
X0348735Y0165141D01*
X0348690Y0165145D01*
X0348646Y0165153D01*
X0348602Y0165164D01*
X0348560Y0165179D01*
X0348519Y0165198D01*
X0348480Y0165219D01*
X0348443Y0165244D01*
X0348408Y0165273D01*
X0348376Y0165304D01*
X0348346Y0165337D01*
X0348320Y0165373D01*
X0348296Y0165411D01*
X0348276Y0165452D01*
X0348259Y0165493D01*
X0348246Y0165536D01*
X0348237Y0165580D01*
X0348231Y0165624D01*
X0348229Y0165669D01*
X0348231Y0165714D01*
X0348237Y0165758D01*
X0348246Y0165802D01*
X0348259Y0165845D01*
X0348276Y0165886D01*
X0348296Y0165927D01*
X0348320Y0165965D01*
X0348346Y0166001D01*
X0348376Y0166034D01*
X0348408Y0166065D01*
X0348443Y0166094D01*
X0348480Y0166119D01*
X0348519Y0166140D01*
X0348560Y0166159D01*
X0348602Y0166174D01*
X0348646Y0166185D01*
X0348690Y0166193D01*
X0348735Y0166197D01*
X0348779Y0166197D01*
X0348824Y0166193D01*
X0348868Y0166185D01*
X0348912Y0166174D01*
X0348954Y0166159D01*
X0348995Y0166140D01*
X0349034Y0166119D01*
X0349071Y0166094D01*
X0349106Y0166065D01*
X0349138Y0166034D01*
X0349168Y0166001D01*
X0349194Y0165965D01*
X0349218Y0165927D01*
X0349238Y0165886D01*
X0349255Y0165845D01*
X0349268Y0165802D01*
X0349277Y0165758D01*
X0349283Y0165714D01*
X0349285Y0165669D01*
X0346985Y0165933D02*
X0346405Y0166250D01*
X0346616Y0167042D02*
X0346667Y0167040D01*
X0346718Y0167035D01*
X0346768Y0167027D01*
X0346818Y0167016D01*
X0346866Y0167001D01*
X0346914Y0166984D01*
X0346961Y0166963D01*
X0347006Y0166939D01*
X0347049Y0166913D01*
X0347091Y0166884D01*
X0346404Y0166249D02*
X0346370Y0166272D01*
X0346339Y0166297D01*
X0346310Y0166325D01*
X0346283Y0166356D01*
X0346260Y0166389D01*
X0346240Y0166424D01*
X0346223Y0166461D01*
X0346210Y0166499D01*
X0346201Y0166538D01*
X0346195Y0166579D01*
X0346193Y0166619D01*
X0346194Y0166619D02*
X0346196Y0166658D01*
X0346201Y0166697D01*
X0346210Y0166734D01*
X0346222Y0166771D01*
X0346238Y0166807D01*
X0346257Y0166841D01*
X0346279Y0166873D01*
X0346304Y0166903D01*
X0346332Y0166931D01*
X0346362Y0166956D01*
X0346394Y0166978D01*
X0346428Y0166997D01*
X0346464Y0167013D01*
X0346501Y0167025D01*
X0346538Y0167034D01*
X0346577Y0167039D01*
X0346616Y0167041D01*
X0346141Y0165405D02*
X0346183Y0165365D01*
X0346229Y0165327D01*
X0346276Y0165293D01*
X0346326Y0165262D01*
X0346378Y0165234D01*
X0346431Y0165210D01*
X0346486Y0165189D01*
X0346542Y0165172D01*
X0346599Y0165158D01*
X0346657Y0165149D01*
X0346715Y0165143D01*
X0346774Y0165141D01*
X0346774Y0165142D02*
X0346813Y0165144D01*
X0346852Y0165149D01*
X0346889Y0165158D01*
X0346926Y0165170D01*
X0346962Y0165186D01*
X0346996Y0165205D01*
X0347028Y0165227D01*
X0347058Y0165252D01*
X0347086Y0165280D01*
X0347111Y0165310D01*
X0347133Y0165342D01*
X0347152Y0165376D01*
X0347168Y0165412D01*
X0347180Y0165449D01*
X0347189Y0165486D01*
X0347194Y0165525D01*
X0347196Y0165564D01*
X0347197Y0165564D02*
X0347195Y0165604D01*
X0347189Y0165645D01*
X0347180Y0165684D01*
X0347167Y0165722D01*
X0347150Y0165759D01*
X0347130Y0165794D01*
X0347107Y0165827D01*
X0347080Y0165858D01*
X0347051Y0165886D01*
X0347020Y0165911D01*
X0346986Y0165934D01*
X0244065Y0239338D02*
X0244065Y0239549D01*
X0244063Y0239588D01*
X0244058Y0239627D01*
X0244049Y0239664D01*
X0244037Y0239701D01*
X0244021Y0239737D01*
X0244002Y0239771D01*
X0243980Y0239803D01*
X0243955Y0239833D01*
X0243927Y0239861D01*
X0243897Y0239886D01*
X0243865Y0239908D01*
X0243831Y0239927D01*
X0243795Y0239943D01*
X0243758Y0239955D01*
X0243721Y0239964D01*
X0243682Y0239969D01*
X0243643Y0239971D01*
X0243010Y0239971D01*
X0243010Y0240815D01*
X0244065Y0240815D01*
X0244065Y0239338D02*
X0244063Y0239299D01*
X0244058Y0239260D01*
X0244049Y0239223D01*
X0244037Y0239186D01*
X0244021Y0239150D01*
X0244002Y0239116D01*
X0243980Y0239084D01*
X0243955Y0239054D01*
X0243927Y0239026D01*
X0243897Y0239001D01*
X0243865Y0238979D01*
X0243831Y0238960D01*
X0243795Y0238944D01*
X0243758Y0238932D01*
X0243721Y0238923D01*
X0243682Y0238918D01*
X0243643Y0238916D01*
X0243643Y0238915D02*
X0243010Y0238915D01*
X0241905Y0238915D02*
X0240850Y0238915D01*
X0241377Y0238915D02*
X0241377Y0240815D01*
X0240850Y0240393D01*
X0239606Y0239707D02*
X0239026Y0240024D01*
X0239237Y0240816D02*
X0239288Y0240814D01*
X0239339Y0240809D01*
X0239389Y0240801D01*
X0239439Y0240790D01*
X0239487Y0240775D01*
X0239535Y0240758D01*
X0239582Y0240737D01*
X0239627Y0240713D01*
X0239670Y0240687D01*
X0239712Y0240658D01*
X0239025Y0240023D02*
X0238991Y0240046D01*
X0238960Y0240071D01*
X0238931Y0240099D01*
X0238904Y0240130D01*
X0238881Y0240163D01*
X0238861Y0240198D01*
X0238844Y0240235D01*
X0238831Y0240273D01*
X0238822Y0240312D01*
X0238816Y0240353D01*
X0238814Y0240393D01*
X0238815Y0240393D02*
X0238817Y0240432D01*
X0238822Y0240471D01*
X0238831Y0240508D01*
X0238843Y0240545D01*
X0238859Y0240581D01*
X0238878Y0240615D01*
X0238900Y0240647D01*
X0238925Y0240677D01*
X0238953Y0240705D01*
X0238983Y0240730D01*
X0239015Y0240752D01*
X0239049Y0240771D01*
X0239085Y0240787D01*
X0239122Y0240799D01*
X0239159Y0240808D01*
X0239198Y0240813D01*
X0239237Y0240815D01*
X0238762Y0239179D02*
X0238804Y0239139D01*
X0238850Y0239101D01*
X0238897Y0239067D01*
X0238947Y0239036D01*
X0238999Y0239008D01*
X0239052Y0238984D01*
X0239107Y0238963D01*
X0239163Y0238946D01*
X0239220Y0238932D01*
X0239278Y0238923D01*
X0239336Y0238917D01*
X0239395Y0238915D01*
X0239395Y0238916D02*
X0239434Y0238918D01*
X0239473Y0238923D01*
X0239510Y0238932D01*
X0239547Y0238944D01*
X0239583Y0238960D01*
X0239617Y0238979D01*
X0239649Y0239001D01*
X0239679Y0239026D01*
X0239707Y0239054D01*
X0239732Y0239084D01*
X0239754Y0239116D01*
X0239773Y0239150D01*
X0239789Y0239186D01*
X0239801Y0239223D01*
X0239810Y0239260D01*
X0239815Y0239299D01*
X0239817Y0239338D01*
X0239815Y0239378D01*
X0239809Y0239419D01*
X0239800Y0239458D01*
X0239787Y0239496D01*
X0239770Y0239533D01*
X0239750Y0239568D01*
X0239727Y0239601D01*
X0239700Y0239632D01*
X0239671Y0239660D01*
X0239640Y0239685D01*
X0239606Y0239708D01*
X0195741Y0199477D02*
X0194686Y0199477D01*
X0194686Y0198632D01*
X0195319Y0198632D01*
X0195358Y0198630D01*
X0195397Y0198625D01*
X0195434Y0198616D01*
X0195471Y0198604D01*
X0195507Y0198588D01*
X0195541Y0198569D01*
X0195573Y0198547D01*
X0195603Y0198522D01*
X0195631Y0198494D01*
X0195656Y0198464D01*
X0195678Y0198432D01*
X0195697Y0198398D01*
X0195713Y0198362D01*
X0195725Y0198325D01*
X0195734Y0198288D01*
X0195739Y0198249D01*
X0195741Y0198210D01*
X0195741Y0197999D01*
X0195739Y0197960D01*
X0195734Y0197921D01*
X0195725Y0197884D01*
X0195713Y0197847D01*
X0195697Y0197811D01*
X0195678Y0197777D01*
X0195656Y0197745D01*
X0195631Y0197715D01*
X0195603Y0197687D01*
X0195573Y0197662D01*
X0195541Y0197640D01*
X0195507Y0197621D01*
X0195471Y0197605D01*
X0195434Y0197593D01*
X0195397Y0197584D01*
X0195358Y0197579D01*
X0195319Y0197577D01*
X0194686Y0197577D01*
X0193442Y0198368D02*
X0192861Y0198685D01*
X0193073Y0199477D02*
X0193124Y0199475D01*
X0193175Y0199470D01*
X0193225Y0199462D01*
X0193275Y0199451D01*
X0193323Y0199436D01*
X0193371Y0199419D01*
X0193418Y0199398D01*
X0193463Y0199374D01*
X0193506Y0199348D01*
X0193548Y0199319D01*
X0192861Y0198685D02*
X0192827Y0198708D01*
X0192796Y0198733D01*
X0192767Y0198761D01*
X0192740Y0198792D01*
X0192717Y0198825D01*
X0192697Y0198860D01*
X0192680Y0198897D01*
X0192667Y0198935D01*
X0192658Y0198974D01*
X0192652Y0199015D01*
X0192650Y0199055D01*
X0192651Y0199055D02*
X0192653Y0199094D01*
X0192658Y0199133D01*
X0192667Y0199170D01*
X0192679Y0199207D01*
X0192695Y0199243D01*
X0192714Y0199277D01*
X0192736Y0199309D01*
X0192761Y0199339D01*
X0192789Y0199367D01*
X0192819Y0199392D01*
X0192851Y0199414D01*
X0192885Y0199433D01*
X0192921Y0199449D01*
X0192958Y0199461D01*
X0192995Y0199470D01*
X0193034Y0199475D01*
X0193073Y0199477D01*
X0192598Y0197841D02*
X0192640Y0197801D01*
X0192686Y0197763D01*
X0192733Y0197729D01*
X0192783Y0197698D01*
X0192835Y0197670D01*
X0192888Y0197646D01*
X0192943Y0197625D01*
X0192999Y0197608D01*
X0193056Y0197594D01*
X0193114Y0197585D01*
X0193172Y0197579D01*
X0193231Y0197577D01*
X0193270Y0197579D01*
X0193309Y0197584D01*
X0193346Y0197593D01*
X0193383Y0197605D01*
X0193419Y0197621D01*
X0193453Y0197640D01*
X0193485Y0197662D01*
X0193515Y0197687D01*
X0193543Y0197715D01*
X0193568Y0197745D01*
X0193590Y0197777D01*
X0193609Y0197811D01*
X0193625Y0197847D01*
X0193637Y0197884D01*
X0193646Y0197921D01*
X0193651Y0197960D01*
X0193653Y0197999D01*
X0193651Y0198039D01*
X0193645Y0198080D01*
X0193636Y0198119D01*
X0193623Y0198157D01*
X0193606Y0198194D01*
X0193586Y0198229D01*
X0193563Y0198262D01*
X0193536Y0198293D01*
X0193507Y0198321D01*
X0193476Y0198346D01*
X0193442Y0198369D01*
X0148158Y0237774D02*
X0148158Y0238618D01*
X0148475Y0238196D02*
X0147419Y0238196D01*
X0147841Y0239674D01*
X0145787Y0239674D02*
X0145787Y0237774D01*
X0145259Y0237774D02*
X0146315Y0237774D01*
X0145259Y0239251D02*
X0145787Y0239674D01*
X0144016Y0238565D02*
X0143435Y0238882D01*
X0143646Y0239674D02*
X0143697Y0239672D01*
X0143748Y0239667D01*
X0143798Y0239659D01*
X0143848Y0239648D01*
X0143896Y0239633D01*
X0143944Y0239616D01*
X0143991Y0239595D01*
X0144036Y0239571D01*
X0144079Y0239545D01*
X0144121Y0239516D01*
X0143435Y0238881D02*
X0143401Y0238904D01*
X0143370Y0238929D01*
X0143341Y0238957D01*
X0143314Y0238988D01*
X0143291Y0239021D01*
X0143271Y0239056D01*
X0143254Y0239093D01*
X0143241Y0239131D01*
X0143232Y0239170D01*
X0143226Y0239211D01*
X0143224Y0239251D01*
X0143226Y0239290D01*
X0143231Y0239329D01*
X0143240Y0239366D01*
X0143252Y0239403D01*
X0143268Y0239439D01*
X0143287Y0239473D01*
X0143309Y0239505D01*
X0143334Y0239535D01*
X0143362Y0239563D01*
X0143392Y0239588D01*
X0143424Y0239610D01*
X0143458Y0239629D01*
X0143494Y0239645D01*
X0143531Y0239657D01*
X0143568Y0239666D01*
X0143607Y0239671D01*
X0143646Y0239673D01*
X0143171Y0238038D02*
X0143213Y0237998D01*
X0143259Y0237960D01*
X0143306Y0237926D01*
X0143356Y0237895D01*
X0143408Y0237867D01*
X0143461Y0237843D01*
X0143516Y0237822D01*
X0143572Y0237805D01*
X0143629Y0237791D01*
X0143687Y0237782D01*
X0143745Y0237776D01*
X0143804Y0237774D01*
X0143843Y0237776D01*
X0143882Y0237781D01*
X0143919Y0237790D01*
X0143956Y0237802D01*
X0143992Y0237818D01*
X0144026Y0237837D01*
X0144058Y0237859D01*
X0144088Y0237884D01*
X0144116Y0237912D01*
X0144141Y0237942D01*
X0144163Y0237974D01*
X0144182Y0238008D01*
X0144198Y0238044D01*
X0144210Y0238081D01*
X0144219Y0238118D01*
X0144224Y0238157D01*
X0144226Y0238196D01*
X0144227Y0238196D02*
X0144225Y0238236D01*
X0144219Y0238277D01*
X0144210Y0238316D01*
X0144197Y0238354D01*
X0144180Y0238391D01*
X0144160Y0238426D01*
X0144137Y0238459D01*
X0144110Y0238490D01*
X0144081Y0238518D01*
X0144050Y0238543D01*
X0144016Y0238566D01*
X0120410Y0259630D02*
X0120938Y0261530D01*
X0119882Y0261530D01*
X0119882Y0261318D01*
X0118639Y0260421D02*
X0118058Y0260738D01*
X0118269Y0261530D02*
X0118320Y0261528D01*
X0118371Y0261523D01*
X0118421Y0261515D01*
X0118471Y0261504D01*
X0118519Y0261489D01*
X0118567Y0261472D01*
X0118614Y0261451D01*
X0118659Y0261427D01*
X0118702Y0261401D01*
X0118744Y0261372D01*
X0118058Y0260737D02*
X0118024Y0260760D01*
X0117993Y0260785D01*
X0117964Y0260813D01*
X0117937Y0260844D01*
X0117914Y0260877D01*
X0117894Y0260912D01*
X0117877Y0260949D01*
X0117864Y0260987D01*
X0117855Y0261026D01*
X0117849Y0261067D01*
X0117847Y0261107D01*
X0117849Y0261146D01*
X0117854Y0261185D01*
X0117863Y0261222D01*
X0117875Y0261259D01*
X0117891Y0261295D01*
X0117910Y0261329D01*
X0117932Y0261361D01*
X0117957Y0261391D01*
X0117985Y0261419D01*
X0118015Y0261444D01*
X0118047Y0261466D01*
X0118081Y0261485D01*
X0118117Y0261501D01*
X0118154Y0261513D01*
X0118191Y0261522D01*
X0118230Y0261527D01*
X0118269Y0261529D01*
X0117795Y0259894D02*
X0117837Y0259854D01*
X0117883Y0259816D01*
X0117930Y0259782D01*
X0117980Y0259751D01*
X0118032Y0259723D01*
X0118085Y0259699D01*
X0118140Y0259678D01*
X0118196Y0259661D01*
X0118253Y0259647D01*
X0118311Y0259638D01*
X0118369Y0259632D01*
X0118428Y0259630D01*
X0118467Y0259632D01*
X0118506Y0259637D01*
X0118543Y0259646D01*
X0118580Y0259658D01*
X0118616Y0259674D01*
X0118650Y0259693D01*
X0118682Y0259715D01*
X0118712Y0259740D01*
X0118740Y0259768D01*
X0118765Y0259798D01*
X0118787Y0259830D01*
X0118806Y0259864D01*
X0118822Y0259900D01*
X0118834Y0259937D01*
X0118843Y0259974D01*
X0118848Y0260013D01*
X0118850Y0260052D01*
X0118848Y0260092D01*
X0118842Y0260133D01*
X0118833Y0260172D01*
X0118820Y0260210D01*
X0118803Y0260247D01*
X0118783Y0260282D01*
X0118760Y0260315D01*
X0118733Y0260346D01*
X0118704Y0260374D01*
X0118673Y0260399D01*
X0118639Y0260422D01*
X0192861Y0287268D02*
X0193442Y0286951D01*
X0193231Y0286159D02*
X0193172Y0286161D01*
X0193114Y0286167D01*
X0193056Y0286176D01*
X0192999Y0286190D01*
X0192943Y0286207D01*
X0192888Y0286228D01*
X0192835Y0286252D01*
X0192783Y0286280D01*
X0192733Y0286311D01*
X0192686Y0286345D01*
X0192640Y0286383D01*
X0192598Y0286423D01*
X0193442Y0286952D02*
X0193476Y0286929D01*
X0193507Y0286904D01*
X0193536Y0286876D01*
X0193563Y0286845D01*
X0193586Y0286812D01*
X0193606Y0286777D01*
X0193623Y0286740D01*
X0193636Y0286702D01*
X0193645Y0286663D01*
X0193651Y0286622D01*
X0193653Y0286582D01*
X0193651Y0286543D01*
X0193646Y0286504D01*
X0193637Y0286467D01*
X0193625Y0286430D01*
X0193609Y0286394D01*
X0193590Y0286360D01*
X0193568Y0286328D01*
X0193543Y0286298D01*
X0193515Y0286270D01*
X0193485Y0286245D01*
X0193453Y0286223D01*
X0193419Y0286204D01*
X0193383Y0286188D01*
X0193346Y0286176D01*
X0193309Y0286167D01*
X0193270Y0286162D01*
X0193231Y0286160D01*
X0193548Y0287902D02*
X0193506Y0287931D01*
X0193463Y0287957D01*
X0193418Y0287981D01*
X0193371Y0288002D01*
X0193323Y0288019D01*
X0193275Y0288034D01*
X0193225Y0288045D01*
X0193175Y0288053D01*
X0193124Y0288058D01*
X0193073Y0288060D01*
X0193073Y0288059D02*
X0193034Y0288057D01*
X0192995Y0288052D01*
X0192958Y0288043D01*
X0192921Y0288031D01*
X0192885Y0288015D01*
X0192851Y0287996D01*
X0192819Y0287974D01*
X0192789Y0287949D01*
X0192761Y0287921D01*
X0192736Y0287891D01*
X0192714Y0287859D01*
X0192695Y0287825D01*
X0192679Y0287789D01*
X0192667Y0287752D01*
X0192658Y0287715D01*
X0192653Y0287676D01*
X0192651Y0287637D01*
X0192650Y0287637D02*
X0192652Y0287597D01*
X0192658Y0287556D01*
X0192667Y0287517D01*
X0192680Y0287479D01*
X0192697Y0287442D01*
X0192717Y0287407D01*
X0192740Y0287374D01*
X0192767Y0287343D01*
X0192796Y0287315D01*
X0192827Y0287290D01*
X0192861Y0287267D01*
X0194686Y0287637D02*
X0195213Y0288059D01*
X0195213Y0286159D01*
X0194686Y0286159D02*
X0195741Y0286159D01*
X0114144Y0368059D02*
X0113088Y0368059D01*
X0113986Y0369114D01*
X0113669Y0369958D02*
X0113621Y0369956D01*
X0113574Y0369950D01*
X0113526Y0369941D01*
X0113480Y0369928D01*
X0113435Y0369911D01*
X0113392Y0369891D01*
X0113350Y0369868D01*
X0113310Y0369841D01*
X0113273Y0369812D01*
X0113237Y0369779D01*
X0113205Y0369744D01*
X0113175Y0369706D01*
X0113149Y0369666D01*
X0113125Y0369624D01*
X0113105Y0369581D01*
X0113089Y0369536D01*
X0113986Y0369115D02*
X0114014Y0369144D01*
X0114041Y0369176D01*
X0114064Y0369210D01*
X0114085Y0369246D01*
X0114103Y0369283D01*
X0114117Y0369322D01*
X0114129Y0369361D01*
X0114137Y0369402D01*
X0114142Y0369443D01*
X0114144Y0369484D01*
X0114142Y0369525D01*
X0114137Y0369566D01*
X0114128Y0369607D01*
X0114115Y0369646D01*
X0114099Y0369685D01*
X0114080Y0369722D01*
X0114058Y0369756D01*
X0114033Y0369789D01*
X0114005Y0369820D01*
X0113974Y0369848D01*
X0113941Y0369873D01*
X0113907Y0369895D01*
X0113870Y0369914D01*
X0113831Y0369930D01*
X0113792Y0369943D01*
X0113751Y0369952D01*
X0113710Y0369957D01*
X0113669Y0369959D01*
X0111456Y0369959D02*
X0111456Y0368059D01*
X0110928Y0368059D02*
X0111984Y0368059D01*
X0110928Y0369536D02*
X0111456Y0369959D01*
X0109685Y0368850D02*
X0109104Y0369167D01*
X0109315Y0369959D02*
X0109366Y0369957D01*
X0109417Y0369952D01*
X0109467Y0369944D01*
X0109517Y0369933D01*
X0109565Y0369918D01*
X0109613Y0369901D01*
X0109660Y0369880D01*
X0109705Y0369856D01*
X0109748Y0369830D01*
X0109790Y0369801D01*
X0109104Y0369166D02*
X0109070Y0369189D01*
X0109039Y0369214D01*
X0109010Y0369242D01*
X0108983Y0369273D01*
X0108960Y0369306D01*
X0108940Y0369341D01*
X0108923Y0369378D01*
X0108910Y0369416D01*
X0108901Y0369455D01*
X0108895Y0369496D01*
X0108893Y0369536D01*
X0108895Y0369575D01*
X0108900Y0369614D01*
X0108909Y0369651D01*
X0108921Y0369688D01*
X0108937Y0369724D01*
X0108956Y0369758D01*
X0108978Y0369790D01*
X0109003Y0369820D01*
X0109031Y0369848D01*
X0109061Y0369873D01*
X0109093Y0369895D01*
X0109127Y0369914D01*
X0109163Y0369930D01*
X0109200Y0369942D01*
X0109237Y0369951D01*
X0109276Y0369956D01*
X0109315Y0369958D01*
X0108841Y0368323D02*
X0108883Y0368283D01*
X0108929Y0368245D01*
X0108976Y0368211D01*
X0109026Y0368180D01*
X0109078Y0368152D01*
X0109131Y0368128D01*
X0109186Y0368107D01*
X0109242Y0368090D01*
X0109299Y0368076D01*
X0109357Y0368067D01*
X0109415Y0368061D01*
X0109474Y0368059D01*
X0109513Y0368061D01*
X0109552Y0368066D01*
X0109589Y0368075D01*
X0109626Y0368087D01*
X0109662Y0368103D01*
X0109696Y0368122D01*
X0109728Y0368144D01*
X0109758Y0368169D01*
X0109786Y0368197D01*
X0109811Y0368227D01*
X0109833Y0368259D01*
X0109852Y0368293D01*
X0109868Y0368329D01*
X0109880Y0368366D01*
X0109889Y0368403D01*
X0109894Y0368442D01*
X0109896Y0368481D01*
X0109894Y0368521D01*
X0109888Y0368562D01*
X0109879Y0368601D01*
X0109866Y0368639D01*
X0109849Y0368676D01*
X0109829Y0368711D01*
X0109806Y0368744D01*
X0109779Y0368775D01*
X0109750Y0368803D01*
X0109719Y0368828D01*
X0109685Y0368851D01*
X0350342Y0383724D02*
X0350922Y0383408D01*
X0350711Y0382616D02*
X0350652Y0382618D01*
X0350594Y0382624D01*
X0350536Y0382633D01*
X0350479Y0382647D01*
X0350423Y0382664D01*
X0350368Y0382685D01*
X0350315Y0382709D01*
X0350263Y0382737D01*
X0350213Y0382768D01*
X0350166Y0382802D01*
X0350120Y0382840D01*
X0350078Y0382880D01*
X0350923Y0383408D02*
X0350957Y0383385D01*
X0350988Y0383360D01*
X0351017Y0383332D01*
X0351044Y0383301D01*
X0351067Y0383268D01*
X0351087Y0383233D01*
X0351104Y0383196D01*
X0351117Y0383158D01*
X0351126Y0383119D01*
X0351132Y0383078D01*
X0351134Y0383038D01*
X0351133Y0383038D02*
X0351131Y0382999D01*
X0351126Y0382960D01*
X0351117Y0382923D01*
X0351105Y0382886D01*
X0351089Y0382850D01*
X0351070Y0382816D01*
X0351048Y0382784D01*
X0351023Y0382754D01*
X0350995Y0382726D01*
X0350965Y0382701D01*
X0350933Y0382679D01*
X0350899Y0382660D01*
X0350863Y0382644D01*
X0350826Y0382632D01*
X0350789Y0382623D01*
X0350750Y0382618D01*
X0350711Y0382616D01*
X0351028Y0384358D02*
X0350986Y0384387D01*
X0350943Y0384413D01*
X0350898Y0384437D01*
X0350851Y0384458D01*
X0350803Y0384475D01*
X0350755Y0384490D01*
X0350705Y0384501D01*
X0350655Y0384509D01*
X0350604Y0384514D01*
X0350553Y0384516D01*
X0350514Y0384514D01*
X0350475Y0384509D01*
X0350438Y0384500D01*
X0350401Y0384488D01*
X0350365Y0384472D01*
X0350331Y0384453D01*
X0350299Y0384431D01*
X0350269Y0384406D01*
X0350241Y0384378D01*
X0350216Y0384348D01*
X0350194Y0384316D01*
X0350175Y0384282D01*
X0350159Y0384246D01*
X0350147Y0384209D01*
X0350138Y0384172D01*
X0350133Y0384133D01*
X0350131Y0384094D01*
X0350130Y0384094D02*
X0350132Y0384054D01*
X0350138Y0384013D01*
X0350147Y0383974D01*
X0350160Y0383936D01*
X0350177Y0383899D01*
X0350197Y0383864D01*
X0350220Y0383831D01*
X0350247Y0383800D01*
X0350276Y0383772D01*
X0350307Y0383747D01*
X0350341Y0383724D01*
X0352166Y0383672D02*
X0352166Y0383144D01*
X0352168Y0383099D01*
X0352174Y0383055D01*
X0352183Y0383011D01*
X0352196Y0382968D01*
X0352213Y0382927D01*
X0352233Y0382886D01*
X0352257Y0382848D01*
X0352283Y0382812D01*
X0352313Y0382779D01*
X0352345Y0382748D01*
X0352380Y0382719D01*
X0352417Y0382694D01*
X0352456Y0382673D01*
X0352497Y0382654D01*
X0352539Y0382639D01*
X0352583Y0382628D01*
X0352627Y0382620D01*
X0352672Y0382616D01*
X0352716Y0382616D01*
X0352761Y0382620D01*
X0352805Y0382628D01*
X0352849Y0382639D01*
X0352891Y0382654D01*
X0352932Y0382673D01*
X0352971Y0382694D01*
X0353008Y0382719D01*
X0353043Y0382748D01*
X0353075Y0382779D01*
X0353105Y0382812D01*
X0353131Y0382848D01*
X0353155Y0382886D01*
X0353175Y0382927D01*
X0353192Y0382968D01*
X0353205Y0383011D01*
X0353214Y0383055D01*
X0353220Y0383099D01*
X0353222Y0383144D01*
X0353221Y0383144D02*
X0353221Y0383249D01*
X0353219Y0383288D01*
X0353214Y0383327D01*
X0353205Y0383364D01*
X0353193Y0383401D01*
X0353177Y0383437D01*
X0353158Y0383471D01*
X0353136Y0383503D01*
X0353111Y0383533D01*
X0353083Y0383561D01*
X0353053Y0383586D01*
X0353021Y0383608D01*
X0352987Y0383627D01*
X0352951Y0383643D01*
X0352914Y0383655D01*
X0352877Y0383664D01*
X0352838Y0383669D01*
X0352799Y0383671D01*
X0352799Y0383672D02*
X0352166Y0383672D01*
X0352168Y0383730D01*
X0352174Y0383787D01*
X0352184Y0383844D01*
X0352197Y0383900D01*
X0352215Y0383955D01*
X0352236Y0384008D01*
X0352261Y0384060D01*
X0352289Y0384111D01*
X0352320Y0384159D01*
X0352355Y0384205D01*
X0352393Y0384248D01*
X0352434Y0384289D01*
X0352477Y0384327D01*
X0352523Y0384362D01*
X0352571Y0384393D01*
X0352622Y0384421D01*
X0352674Y0384446D01*
X0352727Y0384467D01*
X0352782Y0384485D01*
X0352838Y0384498D01*
X0352895Y0384508D01*
X0352952Y0384514D01*
X0353010Y0384516D01*
M02*
